<?xml version="1.0" encoding="UTF-8"?><svg id="Layer_1" xmlns="http://www.w3.org/2000/svg" viewBox="0 0 150 150.01"><defs><style>.cls-1,.cls-2{fill:#fff;}.cls-3{fill:none;}.cls-3,.cls-2{stroke:#002f6c;stroke-linecap:round;stroke-linejoin:round;stroke-width:2.57px;}</style></defs><rect class="cls-1" x="0" y="140.01" width="150" height="10"/><rect class="cls-1" width="150" height="10"/><polygon class="cls-2" points="69.6 138.49 25.66 113.34 25.68 105.43 51.83 90.41 95.03 114.71 94.91 123.61 69.6 138.49"/><polygon class="cls-2" points="51.69 90.21 25.91 105.29 69.85 130.45 95.16 114.96 51.69 90.21"/><line class="cls-3" x1="69.31" y1="130.59" x2="69.26" y2="138.47"/><polygon class="cls-2" points="46.31 93.09 46.29 84.73 81.47 64.73 124.98 89.21 124.84 97.66 90.25 118.27 46.31 93.09"/><polyline class="cls-3" points="46.11 93.09 90.07 118.27 124.64 97.66"/><line class="cls-3" x1="46.09" y1="84.73" x2="46.04" y2="96.24"/><polygon class="cls-2" points="46.13 84.82 46.18 71.08 81.29 51.2 81.29 64.73 46.13 84.82"/><polygon class="cls-2" points="81.22 64.26 46.11 84.62 90.07 109.78 124.69 89.01 81.22 64.26"/><path class="cls-2" d="m78.56,62.03l-10.79,5.56c-1.31.72-1.78,1.6-2.05,2.61-.25.95-.2,2.5.47,3.85.61,1.22,1.58,1.76,2.3,2.09.95.47,2.73.32,3.65-.2,3.13-1.76,10.04-5.45,11.08-6.22,1.28-.95,1.96-3.51.68-5.47-1.73-2.61-4.32-2.7-5.34-2.23Z"/><line class="cls-3" x1="46.09" y1="71.35" x2="46.04" y2="100.75"/><polyline class="cls-3" points="89.98 125.79 90.03 109.37 124.8 89.21 124.75 106.04"/><path class="cls-2" d="m62.3,70.75l-10.79,5.56c-1.31.72-1.78,1.6-2.05,2.61-.25.95-.2,2.5.47,3.85.61,1.22,1.58,1.76,2.3,2.09.95.47,2.73.32,3.65-.2,3.13-1.76,10.04-5.45,11.08-6.22,1.28-.95,1.96-3.51.68-5.47-1.73-2.61-4.35-2.7-5.34-2.23Z"/><path class="cls-2" d="m44.87,92.57l-11.64,6.44c-1.31.72-1.78,1.6-2.05,2.61-.25.95-.2,2.5.47,3.85.61,1.22,1.58,1.76,2.3,2.09.95.47,2.73.32,3.65-.2,3.13-1.76,10.9-6.33,11.94-7.09,1.28-.95,1.96-3.51.68-5.47-1.71-2.61-4.32-2.7-5.34-2.23Z"/></svg>