<?xml version="1.0" encoding="UTF-8"?><svg id="Layer_1" xmlns="http://www.w3.org/2000/svg" viewBox="0 0 150 150.01"><defs><style>.cls-1,.cls-2{fill:#fff;}.cls-3{fill:none;}.cls-3,.cls-2{stroke:#002f6c;stroke-linecap:round;stroke-linejoin:round;stroke-width:2.55px;}</style></defs><rect class="cls-1" x="0" y="140.01" width="150" height="10"/><rect class="cls-1" width="150" height="10"/><polyline class="cls-3" points="33.88 98.31 90.73 130.91 115.8 115.7"/><line class="cls-3" x1="33.86" y1="90" x2="33.81" y2="101.44"/><polygon class="cls-2" points="33.9 90.09 33.95 81.8 59.53 67.29 59.53 75.38 33.9 90.09"/><polygon class="cls-2" points="59.49 74.94 33.88 89.91 90.73 122.51 115.82 107.14 59.49 74.94"/><line class="cls-3" x1="33.86" y1="81.8" x2="33.81" y2="105.91"/><polyline class="cls-3" points="90.64 138.4 90.69 122.11 115.94 107.32 115.89 124.01"/><polygon class="cls-2" points="59.53 67.29 115.78 99.16 115.91 107.61 59.53 75.38 59.53 67.29"/><polygon class="cls-2" points="40.52 93.46 40.56 85.15 59.71 74.09 59.71 82.2 40.52 93.46"/><polygon class="cls-2" points="59.6 74.38 102.33 98.8 102.22 106.58 59.6 82.49 59.6 74.38"/><polygon class="cls-2" points="83.94 118.24 83.98 109.93 103.13 98.89 103.13 106.98 83.94 118.24"/><polyline class="cls-2" points="90.64 128.84 90.84 113.95 115.76 99.54 115.6 114.24"/><polygon class="cls-1" points="35.2 97.64 35.11 82.44 59.53 68.54 113.37 99.45 89.68 113.06 89.5 120.28 89.39 128.66 84.74 120.66 85.21 120.95 85.21 110.58 104.81 99.45 59.44 72.75 39.2 84.34 39.09 99.65 35.2 97.64"/><line class="cls-3" x1="78.98" y1="93.46" x2="59.78" y2="104.72"/><polygon class="cls-2" points="59.13 59.34 115.87 91.07 115.67 99.49 59.13 67.45 59.13 59.34"/><polygon class="cls-2" points="52.79 62.42 109.52 94.13 109.32 102.58 52.79 70.53 52.79 62.42"/><line class="cls-3" x1="58.89" y1="59.09" x2="53.03" y2="62.22"/><line class="cls-3" x1="115.56" y1="90.94" x2="109.68" y2="94.06"/><path class="cls-1" d="m55.02,70.38l4.87,2.75c.6.34.97.98.96,1.68v5.79c0,.7.38,1.34.98,1.68l32.98,18.59c.6.36,1.34.42,1.99.16l2.23-1.21,1.34-.76,2.68-1.47c2.48,1.3,5.12.94,5.14-.54v-1.07c.02-.71-.36-1.36-.98-1.7l-50.39-28.09c-.91-.52-2.07-.2-2.59.71-.17.29-.25.63-.25.96v.85c0,.71.4,1.35,1.03,1.68Z"/><polygon class="cls-1" points="58.89 60.48 55.36 62.38 109.21 92.37 112.41 90.73 58.89 60.48"/><polygon class="cls-1" points="114.42 92.97 114.6 114.96 107.69 116.01 107.13 108.05 110.64 104.25 110.73 95.03 114.42 92.97"/><line class="cls-3" x1="78.8" y1="77.06" x2="78.75" y2="93.91"/></svg>