<?xml version="1.0" encoding="UTF-8"?><svg id="Layer_1" xmlns="http://www.w3.org/2000/svg" viewBox="0 0 150 150.01"><defs><style>.cls-1{fill:none;}.cls-1,.cls-2{stroke:#002f6c;stroke-linecap:round;stroke-linejoin:round;stroke-width:2.59px;}.cls-3,.cls-2{fill:#fff;}</style></defs><rect class="cls-3" x="0" y="140.01" width="150" height="10"/><rect class="cls-3" width="150" height="10"/><polygon class="cls-2" points="86.1 131.21 41.89 105.89 41.86 97.47 111.68 107.27 111.54 115.77 86.1 131.21"/><polyline class="cls-1" points="41.89 105.89 86.1 131.21 111.54 115.77"/><line class="cls-2" x1="41.86" y1="97.47" x2="41.82" y2="109.05"/><polygon class="cls-2" points="41.9 97.56 41.94 89.14 67.9 74.43 67.9 82.65 41.9 97.56"/><polygon class="cls-2" points="67.84 82.18 41.89 97.37 86.1 122.69 111.57 107.08 67.84 82.18"/><path class="cls-2" d="m60.33,79.41l-11.73,6.47c-1.31.72-1.79,1.61-2.06,2.62-.25.96-.2,2.52.48,3.87.61,1.22,1.59,1.76,2.31,2.1.95.46,2.74.31,3.67-.2,3.15-1.76,10.98-6.36,12.02-7.13,1.29-.95,1.97-3.53.68-5.5-1.73-2.64-4.35-2.72-5.36-2.24Z"/><line class="cls-2" x1="41.86" y1="89.14" x2="41.82" y2="113.59"/><polyline class="cls-1" points="86.02 138.79 86.06 122.27 111.68 107.27 111.64 124.21"/><polygon class="cls-2" points="67.9 74.43 111.79 99.39 111.68 107.27 67.9 82.65 67.9 74.43"/><path class="cls-2" d="m101.2,99.04l-11.73,6.47c-1.31.72-1.79,1.61-2.06,2.62-.25.96-.2,2.52.48,3.87.61,1.22,1.59,1.76,2.31,2.1.95.46,2.74.31,3.67-.2,3.15-1.76,10.98-6.36,12.02-7.13,1.29-.95,1.97-3.53.68-5.5-1.73-2.64-4.35-2.72-5.36-2.24Z"/><polygon class="cls-1" points="86.18 122.42 86.22 114 111.5 99.39 111.5 107.61 86.18 122.42"/><polygon class="cls-3" points="87.57 114.82 110.71 101.23 110.6 114.82 87.36 128.94 87.57 114.82"/></svg>