<?xml version="1.0" encoding="utf-8"?>
<!-- Generator: Adobe Illustrator 27.7.0, SVG Export Plug-In . SVG Version: 6.00 Build 0)  -->
<svg version="1.1" id="Layer_1" xmlns="http://www.w3.org/2000/svg" xmlns:xlink="http://www.w3.org/1999/xlink" x="0px" y="0px"
	 viewBox="0 0 150 150" style="enable-background:new 0 0 150 150;" xml:space="preserve">
<style type="text/css">
	.st0{fill:#FFFFFF;}
	.st1{fill:#FFFFFF;stroke:#002F6C;stroke-width:2.5664;stroke-linecap:round;stroke-linejoin:round;stroke-miterlimit:10;}
	.st2{fill:none;stroke:#002F6C;stroke-width:2.5664;stroke-linecap:round;stroke-linejoin:round;stroke-miterlimit:10;}
</style>
<rect y="140" class="st0" width="150" height="10"/>
<rect class="st0" width="150" height="10"/>
<g>
	<polygon class="st1" points="66,138 22.1,112.8 22.2,104.9 48.3,90 91.4,114.2 91.3,123.1 	"/>
	<polygon class="st1" points="48.1,89.7 22.4,104.8 66.3,129.9 91.5,114.5 	"/>
	<line class="st2" x1="65.7" y1="130" x2="65.7" y2="137.9"/>
	<g>
		<polygon class="st1" points="42.3,92.9 42.3,84.5 85.7,59 129.2,83.4 129.1,91.9 86.2,118 		"/>
		<path class="st1" d="M41.3,91.2"/>
		<polyline class="st2" points="42.2,92.9 86,118 128.8,91.9 		"/>
		<line class="st2" x1="42.1" y1="84.5" x2="42.1" y2="92.1"/>
		<polygon class="st1" points="42.2,84.6 42.2,70.9 85.6,45.5 85.6,59 		"/>
		<line class="st2" x1="42.1" y1="71.2" x2="42.1" y2="92.1"/>
		<polyline class="st2" points="85.9,125.5 86,109.1 129,83.4 129,100.2 		"/>
		<polygon class="st1" points="85.5,58.5 42.2,84.4 86,109.5 128.9,83.3 		"/>
		<path class="st1" d="M80.7,56.3l-12.6,6.7c-1.3,0.7-1.8,1.6-2,2.6c-0.2,0.9-0.2,2.5,0.5,3.8c0.6,1.2,1.6,1.8,2.3,2.1
			c0.9,0.5,2.7,0.3,3.6-0.2c3.1-1.8,11.8-6.6,12.8-7.4c1.3-0.9,2-3.5,0.7-5.5C84.3,55.9,81.7,55.8,80.7,56.3z"/>
		<path class="st1" d="M62.3,66.8l-12.6,6.7c-1.3,0.7-1.8,1.6-2,2.6c-0.2,0.9-0.2,2.5,0.5,3.8c0.6,1.2,1.6,1.8,2.3,2.1
			c0.9,0.5,2.7,0.3,3.6-0.2c3.1-1.8,11.8-6.6,12.8-7.4c1.3-0.9,2-3.5,0.7-5.5C65.9,66.5,63.3,66.4,62.3,66.8z"/>
	</g>
	<path class="st1" d="M41,92.1l-11.6,6.4c-1.3,0.7-1.8,1.6-2,2.6c-0.2,0.9-0.2,2.5,0.5,3.8c0.6,1.2,1.6,1.8,2.3,2.1
		c0.9,0.5,2.7,0.3,3.6-0.2c3.1-1.8,10.9-6.3,11.9-7.1c1.3-0.9,2-3.5,0.7-5.5C44.7,91.7,42,91.6,41,92.1z"/>
</g>
</svg>
