<?xml version="1.0" encoding="UTF-8"?><svg id="Layer_1" xmlns="http://www.w3.org/2000/svg" viewBox="0 0 150 150.01"><defs><style>.cls-1,.cls-2{fill:#fff;}.cls-3{fill:none;}.cls-3,.cls-2{stroke:#002f6c;stroke-linecap:round;stroke-linejoin:round;stroke-width:2.54px;}</style></defs><rect class="cls-1" x="0" y="140.01" width="150" height="10"/><rect class="cls-1" width="150" height="10"/><polygon class="cls-2" points="63.11 138.79 19.68 113.9 19.71 106.09 45.55 91.24 88.24 115.26 88.15 124.05 63.11 138.79"/><polygon class="cls-2" points="45.42 91.04 19.93 105.96 63.36 130.84 88.38 115.51 45.42 91.04"/><polygon class="cls-2" points="39.54 93.76 39.52 85.48 90.11 56.9 133.12 81.09 132.96 89.42 82.97 118.62 39.54 93.76"/><polyline class="cls-3" points="39.36 93.76 82.79 118.62 132.78 89.42"/><line class="cls-3" x1="39.32" y1="85.48" x2="39.29" y2="92.85"/><polygon class="cls-2" points="39.36 85.57 39.41 71.99 89.91 43.52 89.91 56.9 39.36 85.57"/><polygon class="cls-2" points="89.85 56.43 39.36 85.37 82.79 110.25 132.81 80.89 89.85 56.43"/><path class="cls-2" d="m83.72,54.76l-15.54,8.64c-1.29.71-1.76,1.58-2.03,2.58-.24.93-.2,2.47.47,3.81.6,1.2,1.56,1.74,2.27,2.07.93.47,2.69.31,3.61-.2,3.09-1.74,14.8-8.53,15.83-9.28,1.27-.93,1.94-3.47.67-5.41-1.71-2.6-4.27-2.67-5.28-2.2Z"/><line class="cls-3" x1="39.32" y1="72.26" x2="39.29" y2="93.76"/><polyline class="cls-3" points="82.7 126.06 82.74 109.83 132.92 81.09 132.87 97.72"/><path class="cls-2" d="m63.02,66.38l-15.54,8.64c-1.29.71-1.76,1.58-2.03,2.58-.24.93-.2,2.47.47,3.81.6,1.2,1.56,1.74,2.27,2.07.93.47,2.69.31,3.61-.2,3.09-1.74,14.8-8.53,15.83-9.28,1.27-.93,1.94-3.47.67-5.41-1.69-2.58-4.27-2.67-5.28-2.2Z"/><line class="cls-3" x1="62.84" y1="130.95" x2="62.8" y2="138.74"/><path class="cls-2" d="m38.38,93.4l-11.51,6.37c-1.29.71-1.76,1.58-2.03,2.58-.24.93-.2,2.47.47,3.81.6,1.2,1.56,1.74,2.27,2.07.93.47,2.69.31,3.61-.2,3.09-1.74,10.77-6.25,11.8-7.01,1.27-.93,1.94-3.47.67-5.41-1.71-2.6-4.27-2.67-5.28-2.2Z"/></svg>