<?xml version="1.0" encoding="UTF-8"?><svg id="Layer_1" xmlns="http://www.w3.org/2000/svg" viewBox="0 0 150 150.01"><defs><style>.cls-1,.cls-2{fill:#fff;}.cls-3{fill:none;}.cls-3,.cls-2{stroke:#002f6c;stroke-linecap:round;stroke-linejoin:round;stroke-width:2.6px;}</style></defs><rect class="cls-1" x="0" y="140.01" width="150" height="10"/><rect class="cls-1" width="150" height="10"/><polygon class="cls-2" points="41.24 105.26 41.24 96.69 67.39 81.89 111.4 106.06 111.25 115.18 85.69 130.71 41.24 105.26"/><polyline class="cls-3" points="41.39 105.18 85.83 130.62 111.4 115.1"/><line class="cls-2" x1="85.79" y1="121.82" x2="85.75" y2="133.69"/><line class="cls-2" x1="41.36" y1="96.71" x2="41.32" y2="108.35"/><polygon class="cls-2" points="41.4 96.8 41.44 82.9 67.54 68.12 67.54 81.81 41.4 96.8"/><polygon class="cls-2" points="67.48 81.34 41.39 96.61 85.83 122.06 111.43 106.37 67.48 81.34"/><path class="cls-2" d="m61.36,78.85l-11.79,6.51c-1.32.73-1.8,1.61-2.07,2.64-.26.96-.2,2.53.48,3.89.61,1.23,1.6,1.77,2.32,2.12.96.47,2.75.32,3.69-.2,3.17-1.77,11.03-6.39,12.08-7.17,1.3-.96,1.98-3.55.68-5.53-1.74-2.65-4.37-2.73-5.39-2.25Z"/><polyline class="cls-3" points="41.39 71.32 85.83 96.77 111.4 81.25"/><polygon class="cls-2" points="41.39 74.37 41.39 65.81 67.54 51.01 111.54 75.17 111.4 84.3 85.83 99.82 41.39 74.37"/><line class="cls-2" x1="41.36" y1="65.13" x2="41.32" y2="112.91"/><polygon class="cls-2" points="41.4 65.22 41.44 51.33 67.54 36.54 67.54 50.23 41.4 65.22"/><polygon class="cls-2" points="67.4 49.92 41.39 65.03 85.83 90.48 111.36 74.96 67.4 49.92"/><path class="cls-2" d="m61.36,47.27l-11.79,6.51c-1.32.73-1.8,1.61-2.07,2.64-.26.96-.2,2.53.48,3.89.61,1.23,1.6,1.77,2.32,2.12.96.47,2.75.32,3.69-.2,3.17-1.77,11.03-6.39,12.08-7.17,1.3-.96,1.98-3.55.68-5.53-1.74-2.65-4.37-2.73-5.39-2.25Z"/><polyline class="cls-3" points="85.75 138.24 85.79 83.41 111.54 68.34 111.5 123.58"/></svg>