<?xml version="1.0" encoding="UTF-8"?><svg id="Layer_1" xmlns="http://www.w3.org/2000/svg" viewBox="0 0 150 150.01"><defs><style>.cls-1,.cls-2{fill:#fff;}.cls-2,.cls-3{stroke:#002f6c;stroke-linecap:round;stroke-linejoin:round;stroke-width:2.56px;}.cls-3{fill:none;}</style></defs><rect class="cls-1" x="0" y="140.01" width="150" height="10"/><rect class="cls-1" width="150" height="10"/><polygon class="cls-2" points="74.66 138.31 30.86 113.23 30.86 105.33 56.95 90.38 100 114.6 99.89 123.47 74.66 138.31"/><polygon class="cls-2" points="56.81 90.18 31.11 105.22 74.9 130.29 100.13 114.85 56.81 90.18"/><line class="cls-3" x1="74.37" y1="130.4" x2="74.32" y2="138.28"/><polygon class="cls-2" points="94.37 118.22 50.57 93.12 50.53 84.79 119.71 94.49 119.55 102.91 94.37 118.22"/><polyline class="cls-3" points="50.57 93.12 94.37 118.22 119.55 102.91"/><line class="cls-3" x1="50.53" y1="84.79" x2="50.5" y2="96.26"/><polygon class="cls-2" points="50.57 84.86 50.62 76.53 76.34 61.96 76.34 70.11 50.57 84.86"/><polygon class="cls-2" points="76.27 69.64 50.57 84.68 94.37 109.75 119.6 94.31 76.27 69.64"/><path class="cls-2" d="m68.82,66.9l-11.61,6.42c-1.3.72-1.77,1.59-2.04,2.6-.25.94-.2,2.49.47,3.84.61,1.21,1.57,1.75,2.29,2.09.94.47,2.72.31,3.64-.2,3.12-1.75,10.86-6.31,11.9-7.07,1.28-.94,1.95-3.5.67-5.45-1.71-2.63-4.31-2.69-5.32-2.22Z"/><line class="cls-3" x1="50.53" y1="76.53" x2="50.5" y2="100.75"/><polyline class="cls-3" points="94.28 125.71 94.32 109.35 119.71 94.49 119.66 111.26"/><polygon class="cls-2" points="76.34 61.96 119.82 86.68 119.71 94.49 76.34 70.11 76.34 61.96"/><path class="cls-2" d="m109.32,86.34l-11.61,6.42c-1.3.72-1.77,1.59-2.04,2.6-.25.94-.2,2.49.47,3.84.61,1.21,1.57,1.75,2.29,2.09.94.47,2.72.31,3.64-.2,3.12-1.75,10.86-6.31,11.9-7.07,1.28-.94,1.95-3.5.67-5.45-1.71-2.63-4.31-2.69-5.32-2.22Z"/><polygon class="cls-3" points="94.43 109.51 94.48 101.16 119.53 86.68 119.53 94.83 94.43 109.51"/><polygon class="cls-1" points="95.83 101.96 118.74 88.52 118.63 101.96 95.6 115.95 95.83 101.96"/><path class="cls-2" d="m50.01,92.54l-11.61,6.42c-1.3.72-1.77,1.59-2.04,2.6-.25.94-.2,2.49.47,3.84.61,1.21,1.57,1.75,2.29,2.09.94.47,2.72.31,3.64-.2,3.12-1.75,10.86-6.31,11.9-7.07,1.28-.94,1.95-3.5.67-5.45-1.73-2.6-4.31-2.69-5.32-2.22Z"/></svg>