<?xml version="1.0" encoding="UTF-8"?><svg id="Layer_1" xmlns="http://www.w3.org/2000/svg" viewBox="0 0 150 150.01"><defs><style>.cls-1,.cls-2{fill:#fff;}.cls-2,.cls-3{stroke:#002f6c;stroke-linecap:round;stroke-linejoin:round;stroke-width:2.54px;}.cls-3{fill:none;}</style></defs><rect class="cls-1" x="0" y="140.01" width="150" height="10"/><rect class="cls-1" width="150" height="10"/><polygon class="cls-2" points="74.17 137.82 30.7 112.93 30.72 105.09 56.59 90.24 99.33 114.29 99.24 123.09 74.17 137.82"/><polygon class="cls-2" points="56.46 90.04 30.94 104.97 74.42 129.87 99.47 114.53 56.46 90.04"/><line class="cls-3" x1="74.35" y1="130.29" x2="74.29" y2="137.71"/><polygon class="cls-2" points="49.84 92.99 49.84 84.58 75.42 70.12 118.7 93.83 118.34 102.68 93.32 117.88 49.84 92.99"/><polyline class="cls-3" points="49.91 93.41 93.38 118.3 118.38 103.12"/><line class="cls-3" x1="118.54" y1="94.95" x2="118.5" y2="106.96"/><line class="cls-3" x1="93.34" y1="109.7" x2="93.29" y2="121.31"/><polygon class="cls-2" points="49.91 89.67 49.95 71.62 75.49 57.15 75.49 75 49.91 89.67"/><polygon class="cls-2" points="75.53 70.46 49.91 85.03 93.38 109.92 118.54 94.95 75.53 70.46"/><path class="cls-2" d="m69.45,67.65l-11.52,6.37c-1.29.71-1.76,1.58-2.03,2.58-.25.94-.2,2.47.47,3.81.6,1.2,1.56,1.74,2.27,2.07.94.47,2.7.31,3.61-.2,3.1-1.74,10.79-6.26,11.81-7.02,1.27-.94,1.94-3.48.67-5.41-1.72-2.58-4.3-2.67-5.28-2.21Z"/><polyline class="cls-3" points="49.91 60.3 93.38 85.19 118.38 70.01"/><path class="cls-2" d="m69.45,36.76l-11.52,6.37c-1.29.71-1.76,1.58-2.03,2.58-.25.94-.2,2.47.47,3.81.6,1.2,1.56,1.74,2.27,2.07.94.47,2.7.31,3.61-.2,3.1-1.74,10.79-6.26,11.81-7.02,1.27-.94,1.94-3.48.67-5.41-1.72-2.58-4.3-2.67-5.28-2.21Z"/><polygon class="cls-2" points="49.97 62.77 49.97 54.37 75.56 39.91 118.45 63.82 118.47 72.46 93.47 87.66 49.97 62.77"/><polygon class="cls-2" points="49.91 54.32 49.95 40.73 75.49 26.27 75.49 39.66 49.91 54.32"/><polygon class="cls-2" points="75.35 39.35 49.91 54.15 93.38 79.04 118.36 63.84 75.35 39.35"/><path class="cls-2" d="m69.56,36.05l-11.52,6.37c-1.29.71-1.76,1.58-2.03,2.58-.25.94-.2,2.47.47,3.81.6,1.2,1.56,1.74,2.27,2.07.94.47,2.7.31,3.61-.2,3.1-1.74,10.79-6.26,11.81-7.02,1.27-.94,1.94-3.48.67-5.41-1.72-2.58-4.28-2.67-5.28-2.21Z"/><polyline class="cls-3" points="93.29 125.76 93.34 72.13 118.54 57.38 118.5 111.41"/><path class="cls-2" d="m48.97,91.8l-11.52,6.37c-1.29.71-1.76,1.58-2.03,2.58-.25.94-.2,2.47.47,3.81.6,1.2,1.56,1.74,2.27,2.07.94.47,2.7.31,3.61-.2,3.1-1.74,10.79-6.26,11.81-7.02,1.27-.94,1.94-3.48.67-5.41-1.69-2.61-4.28-2.67-5.28-2.21Z"/><line class="cls-3" x1="50.11" y1="63.01" x2="50.04" y2="70.43"/></svg>