<?xml version="1.0" encoding="UTF-8"?><svg id="Layer_1" xmlns="http://www.w3.org/2000/svg" viewBox="0 0 150 150.01"><defs><style>.cls-1{fill:none;}.cls-1,.cls-2{stroke:#002f6c;stroke-linecap:round;stroke-linejoin:round;stroke-width:2.54px;}.cls-3,.cls-2{fill:#fff;}</style></defs><rect class="cls-3" x="0" y="140.01" width="150" height="10"/><rect class="cls-3" width="150" height="10"/><polygon class="cls-2" points="36.3 106.15 36.28 97.86 71.09 78.09 114.15 102.29 114.02 110.65 79.78 131.04 36.3 106.15"/><polyline class="cls-1" points="36.1 106.15 79.61 131.04 113.82 110.65"/><line class="cls-1" x1="36.08" y1="97.86" x2="36.03" y2="109.27"/><polyline class="cls-2" points="70.91 64.69 70.91 78.09 36.12 97.94 36.17 84.35"/><polygon class="cls-2" points="70.85 77.62 36.1 97.77 79.61 122.66 113.86 102.11 70.85 77.62"/><path class="cls-2" d="m68.22,75.41l-10.68,5.51c-1.29.71-1.76,1.58-2.03,2.59-.25.94-.2,2.47.47,3.81.6,1.2,1.56,1.74,2.27,2.07.94.47,2.7.31,3.61-.2,3.1-1.74,9.94-5.39,10.97-6.15,1.27-.94,1.94-3.48.67-5.42-1.72-2.59-4.28-2.67-5.28-2.21Z"/><line class="cls-1" x1="36.08" y1="84.64" x2="36.03" y2="113.72"/><polyline class="cls-1" points="79.52 138.51 79.56 122.26 113.95 102.29 113.93 118.96"/><path class="cls-2" d="m52.1,84.04l-10.68,5.51c-1.29.71-1.76,1.58-2.03,2.59-.25.94-.2,2.47.47,3.81.6,1.2,1.56,1.74,2.27,2.07.94.47,2.7.31,3.61-.2,3.1-1.74,9.94-5.39,10.97-6.15,1.27-.94,1.94-3.48.67-5.42-1.69-2.59-4.28-2.67-5.28-2.21Z"/><polygon class="cls-2" points="36.3 75.97 36.28 67.7 71.09 47.91 114.15 72.14 114.02 80.49 79.78 100.89 36.3 75.97"/><polyline class="cls-1" points="36.1 75.97 79.61 100.89 113.82 80.49"/><line class="cls-1" x1="36.08" y1="67.7" x2="36.03" y2="79.09"/><polygon class="cls-2" points="36.12 67.79 36.17 54.19 70.91 34.51 70.91 47.91 36.12 67.79"/><polygon class="cls-2" points="70.85 47.46 36.1 67.59 79.61 92.51 113.86 71.96 70.85 47.46"/><path class="cls-2" d="m68.22,45.23l-10.68,5.51c-1.29.71-1.76,1.58-2.03,2.59-.25.94-.2,2.47.47,3.81.6,1.2,1.56,1.74,2.27,2.07.94.47,2.7.31,3.61-.2,3.1-1.74,9.94-5.39,10.97-6.15,1.27-.94,1.94-3.48.67-5.42-1.72-2.59-4.28-2.67-5.28-2.21Z"/><line class="cls-1" x1="36.08" y1="54.46" x2="36.03" y2="113.88"/><polyline class="cls-1" points="79.52 138.66 79.56 83.95 113.95 64 113.93 119.12"/><path class="cls-2" d="m52.1,53.88l-10.68,5.51c-1.29.71-1.76,1.58-2.03,2.59-.25.94-.2,2.47.47,3.81.6,1.2,1.56,1.74,2.27,2.07.94.47,2.7.31,3.61-.2,3.1-1.74,9.94-5.39,10.97-6.15,1.27-.94,1.94-3.48.67-5.42-1.69-2.61-4.28-2.67-5.28-2.21Z"/></svg>