<?xml version="1.0" encoding="UTF-8"?><svg id="Layer_1" xmlns="http://www.w3.org/2000/svg" viewBox="0 0 150 150.01"><defs><style>.cls-1,.cls-2{fill:#fff;}.cls-2,.cls-3{stroke:#002f6c;stroke-linecap:round;stroke-linejoin:round;stroke-width:2.54px;}.cls-3{fill:none;}</style></defs><rect class="cls-1" y="140.01" width="150" height="10"/><rect class="cls-1" width="150" height="10"/><polygon class="cls-2" points="31.9 106.06 31.85 97.81 75.14 72.67 118.37 96.77 118.24 105.08 75.58 130.83 31.9 106.06"/><polyline class="cls-3" points="31.7 106.06 75.38 130.83 118.06 105.08"/><line class="cls-3" x1="31.68" y1="97.81" x2="31.63" y2="109.14"/><polygon class="cls-2" points="31.72 97.9 31.76 84.37 74.94 59.34 74.94 72.67 31.72 97.9"/><line class="cls-3" x1="31.68" y1="84.64" x2="31.63" y2="113.58"/><polyline class="cls-3" points="75.32 138.26 75.36 122.07 118.2 96.77 118.15 113.33"/><polygon class="cls-2" points="74.89 72.2 31.7 97.72 75.38 122.49 118.08 96.57 74.89 72.2"/><path class="cls-2" d="m70.08,70.07l-12.49,6.65c-1.04.51-1.79,1.45-2.04,2.57-.28,1.28-.11,2.62.47,3.79.49.92,1.28,1.65,2.24,2.06,1.18.41,2.48.34,3.6-.2,3.13-1.73,11.78-6.65,12.81-7.32,1.52-1.38,1.81-3.66.67-5.37-.99-1.89-3.2-2.81-5.26-2.2Z"/><path class="cls-2" d="m51.81,80.38l-12.49,6.65c-1.04.51-1.79,1.45-2.04,2.57-.28,1.28-.12,2.62.47,3.79.48.93,1.27,1.66,2.24,2.06,1.19.42,2.5.35,3.63-.2,3.11-1.73,11.76-6.54,12.79-7.3,1.52-1.39,1.8-3.67.67-5.39-1.03-1.85-3.21-2.76-5.26-2.2Z"/></svg>