<?xml version="1.0" encoding="utf-8"?>
<!-- Generator: Adobe Illustrator 27.7.0, SVG Export Plug-In . SVG Version: 6.00 Build 0)  -->
<svg version="1.1" id="Layer_1" xmlns="http://www.w3.org/2000/svg" xmlns:xlink="http://www.w3.org/1999/xlink" x="0px" y="0px"
	 viewBox="0 0 150 150" style="enable-background:new 0 0 150 150;" xml:space="preserve">
<style type="text/css">
	.st0{fill:#FFFFFF;}
	.st1{fill:#FFFFFF;stroke:#002F6C;stroke-width:2.5451;stroke-linecap:round;stroke-linejoin:round;}
	.st2{fill:none;stroke:#002F6C;stroke-width:2.5451;stroke-linecap:round;stroke-linejoin:round;}
</style>
<rect y="140" class="st0" width="150" height="10"/>
<rect class="st0" width="150" height="10"/>
<g>
	<polygon class="st1" points="84.1,131.2 40.5,106.2 40.5,97.9 109.3,107.6 109.2,116 	"/>
	<path class="st1" d="M39.7,104.6"/>
	<polyline class="st2" points="40.5,106.2 84.1,131.2 109.2,116 	"/>
	<line class="st2" x1="40.5" y1="97.9" x2="40.5" y2="109.3"/>
	<polygon class="st1" points="40.6,98 40.6,84.4 66.2,69.9 66.2,83.3 	"/>
	<polygon class="st1" points="66.1,82.9 40.5,97.8 84.1,122.8 109.2,107.4 	"/>
	<path class="st1" d="M60.1,80.4l-11.5,6.4c-1,0.5-1.8,1.5-2,2.6c-0.3,1.3-0.1,2.7,0.5,3.8c0.5,0.9,1.3,1.7,2.2,2.1
		c1.2,0.4,2.5,0.3,3.6-0.2c3.1-1.7,10.8-6.3,11.9-7c1.5-1.4,1.8-3.7,0.7-5.4C64.4,80.8,62.2,79.8,60.1,80.4z"/>
	<line class="st2" x1="40.5" y1="84.7" x2="40.5" y2="113.8"/>
	<polyline class="st2" points="84,138.7 84.1,122.4 109.3,107.6 109.3,124.3 	"/>
</g>
</svg>
