<?xml version="1.0" encoding="UTF-8"?><svg id="Layer_1" xmlns="http://www.w3.org/2000/svg" viewBox="0 0 150 150.01"><defs><style>.cls-1,.cls-2{fill:#fff;}.cls-3{fill:none;}.cls-3,.cls-2{stroke:#002f6c;stroke-linecap:round;stroke-linejoin:round;stroke-width:2.54px;}</style></defs><rect class="cls-1" x="0" y="140.01" width="150" height="10"/><rect class="cls-1" width="150" height="10"/><polygon class="cls-2" points="32.25 105.26 32.21 96.99 75.29 71.71 118.34 95.92 118.2 104.28 75.74 130.18 32.25 105.26"/><polyline class="cls-3" points="32.05 105.26 75.54 130.18 118.02 104.28"/><line class="cls-3" x1="32.03" y1="96.99" x2="31.99" y2="108.38"/><polyline class="cls-2" points="75.09 58.32 75.09 71.71 32.07 97.06 32.1 83.46"/><line class="cls-3" x1="32.03" y1="83.75" x2="31.99" y2="112.84"/><polyline class="cls-3" points="75.47 137.63 75.52 121.38 118.16 95.92 118.11 112.59"/><polygon class="cls-2" points="75.03 71.25 32.05 96.88 75.54 121.78 118.05 95.74 75.03 71.25"/><path class="cls-2" d="m70.26,69.02l-12.46,6.69c-1.29.71-1.76,1.58-2.03,2.59-.25.94-.2,2.47.47,3.81.6,1.2,1.56,1.74,2.27,2.07.94.47,2.7.31,3.61-.2,3.1-1.74,11.7-6.58,12.73-7.33,1.27-.94,1.94-3.48.67-5.42-1.69-2.59-4.26-2.67-5.26-2.21Z"/><path class="cls-2" d="m52.07,79.47l-12.46,6.69c-1.29.71-1.76,1.58-2.03,2.59-.25.94-.2,2.47.47,3.81.6,1.2,1.56,1.74,2.27,2.07.94.47,2.7.31,3.61-.2,3.1-1.74,11.7-6.58,12.73-7.33,1.27-.94,1.94-3.48.67-5.42-1.69-2.61-4.26-2.67-5.26-2.21Z"/><polygon class="cls-2" points="32.39 75.1 32.36 66.81 75.43 41.53 118.49 65.74 118.36 74.1 75.9 100 32.39 75.1"/><polyline class="cls-3" points="32.21 75.1 75.7 100 118.16 74.1"/><line class="cls-3" x1="32.16" y1="66.81" x2="32.14" y2="78.2"/><polygon class="cls-2" points="32.21 66.9 32.25 53.3 75.25 28.14 75.25 41.53 32.21 66.9"/><line class="cls-3" x1="32.16" y1="53.57" x2="32.14" y2="82.66"/><polygon class="cls-2" points="75.18 41.07 32.21 66.7 75.7 91.62 118.2 65.56 75.18 41.07"/><path class="cls-2" d="m70.39,38.86l-12.46,6.69c-1.29.71-1.76,1.58-2.03,2.59-.25.94-.2,2.47.47,3.81.6,1.2,1.56,1.74,2.27,2.07.94.47,2.7.31,3.61-.2,3.1-1.74,11.7-6.58,12.73-7.33,1.27-.94,1.94-3.48.67-5.42-1.67-2.61-4.26-2.67-5.26-2.21Z"/><path class="cls-2" d="m52.22,49.29l-12.46,6.69c-1.29.71-1.76,1.58-2.03,2.59-.25.94-.2,2.47.47,3.81.6,1.2,1.56,1.74,2.27,2.07.94.47,2.7.31,3.61-.2,3.1-1.74,11.7-6.58,12.73-7.33,1.27-.94,1.94-3.48.67-5.42-1.69-2.59-4.28-2.67-5.26-2.21Z"/><polyline class="cls-3" points="75.61 137.63 75.65 82.32 118.31 56.87 118.27 112.59"/></svg>