<?xml version="1.0" encoding="UTF-8"?><svg id="Layer_1" xmlns="http://www.w3.org/2000/svg" viewBox="0 0 150 150.01"><defs><style>.cls-1,.cls-2{fill:#fff;}.cls-2,.cls-3{stroke:#002f6c;stroke-linecap:round;stroke-linejoin:round;stroke-width:2.52px;}.cls-3{fill:none;}</style></defs><rect class="cls-1" x="0" y="140.01" width="150" height="10"/><rect class="cls-1" width="150" height="10"/><polygon class="cls-2" points="71.26 138.47 28.11 113.76 28.13 105.99 53.81 91.24 96.22 115.11 96.13 123.84 71.26 138.47"/><polygon class="cls-2" points="53.68 91.04 28.35 105.87 71.5 130.58 96.36 115.35 53.68 91.04"/><line class="cls-2" x1="89.75" y1="110.05" x2="89.71" y2="121.57"/><polyline class="cls-3" points="46.64 93.89 89.79 118.6 121.65 99.55"/><line class="cls-2" x1="121.79" y1="91.45" x2="121.75" y2="103.37"/><polygon class="cls-2" points="46.64 93.89 46.58 85.67 121.79 91.45 121.65 99.55 89.79 118.6 46.64 93.89"/><polygon class="cls-2" points="79.12 67.14 46.64 85.57 89.79 110.28 121.79 91.45 79.12 67.14"/><path class="cls-2" d="m77.01,63.01l-11.44,6.32c-1.28.71-1.74,1.57-2.01,2.56-.25.93-.2,2.46.46,3.78.6,1.19,1.55,1.71,2.25,2.05.93.45,2.67.31,3.58-.2,3.08-1.72,10.71-6.21,11.73-6.96,1.26-.93,1.92-3.45.66-5.37-1.68-2.57-4.24-2.65-5.23-2.19Z"/><polyline class="cls-3" points="53.68 57.05 96.83 81.76 121.65 66.69"/><path class="cls-2" d="m73.07,33.7l-11.44,6.32c-1.28.71-1.74,1.57-2.01,2.56-.25.93-.2,2.46.46,3.78.6,1.19,1.55,1.71,2.25,2.05.93.45,2.67.31,3.58-.2,3.08-1.72,10.71-6.21,11.73-6.96,1.26-.93,1.92-3.45.66-5.37-1.68-2.57-4.24-2.65-5.23-2.19Z"/><polygon class="cls-2" points="53.76 59.5 53.76 51.18 79.15 36.82 121.69 60.54 121.73 69.13 96.91 84.21 96.01 83.69 53.76 59.5"/><polyline class="cls-3" points="53.66 51.04 53.65 59.5 46.58 85.67 46.57 101.4"/><polygon class="cls-2" points="53.7 51.13 53.74 37.64 79.07 23.29 79.07 36.58 53.7 51.13"/><polygon class="cls-2" points="78.94 36.28 53.68 50.94 96.83 75.65 121.62 60.58 78.94 36.28"/><path class="cls-2" d="m73.19,33l-11.44,6.32c-1.28.71-1.74,1.57-2.01,2.56-.25.93-.2,2.46.46,3.78.6,1.19,1.55,1.71,2.25,2.05.93.45,2.67.31,3.58-.2,3.08-1.72,10.71-6.21,11.73-6.96,1.26-.93,1.92-3.45.66-5.37-1.68-2.57-4.24-2.65-5.23-2.19Z"/><polyline class="cls-3" points="89.71 125.99 89.72 110.05 96.76 83.08 96.79 68.79 121.79 54.16 121.75 107.79"/><path class="cls-2" d="m61.11,71.65l-9.57,4.93c-1.28.71-1.74,1.57-2.01,2.56-.25.93-.2,2.46.46,3.78.6,1.19,1.55,1.71,2.25,2.05.93.45,2.67.31,3.58-.2,3.08-1.72,8.84-4.82,9.85-5.57,1.26-.93,1.92-3.45.66-5.37-1.68-2.57-4.24-2.65-5.23-2.19Z"/><path class="cls-2" d="m46.57,91.83l-11.44,6.32c-1.28.71-1.74,1.57-2.01,2.56-.25.93-.2,2.46.46,3.78.6,1.19,1.55,1.71,2.25,2.05.93.45,2.67.31,3.58-.2,3.08-1.72,10.71-6.21,11.73-6.96,1.26-.93,1.92-3.45.66-5.37-1.68-2.57-4.24-2.65-5.23-2.19Z"/><line class="cls-2" x1="71.67" y1="137.85" x2="71.69" y2="130.08"/></svg>