<?xml version="1.0" encoding="utf-8"?>
<!-- Generator: Adobe Illustrator 27.8.1, SVG Export Plug-In . SVG Version: 6.00 Build 0)  -->
<svg version="1.1" id="Layer_1" xmlns="http://www.w3.org/2000/svg" xmlns:xlink="http://www.w3.org/1999/xlink" x="0px" y="0px"
	 viewBox="0 0 150 150" style="enable-background:new 0 0 150 150;" xml:space="preserve">
<style type="text/css">
	.st0{fill:#FFFFFF;}
	.st1{fill:#FFFFFF;stroke:#002F6C;stroke-width:2.5709;stroke-linecap:round;stroke-linejoin:round;stroke-miterlimit:10;}
	.st2{fill:#FFFFFF;stroke:#002F6C;stroke-width:2.5441;stroke-linecap:round;stroke-linejoin:round;stroke-miterlimit:10;}
	.st3{fill:none;stroke:#002F6C;stroke-width:2.5441;stroke-linecap:round;stroke-linejoin:round;stroke-miterlimit:10;}
	.st4{fill:none;stroke:#002F6C;stroke-width:2.5709;stroke-linecap:round;stroke-linejoin:round;stroke-miterlimit:10;}
</style>
<g>
	<rect x="-0.03" y="140.17" class="st0" width="150" height="10"/>
	<rect x="-0.03" y="0.16" class="st0" width="150" height="10"/>
</g>
<g>
	<polygon class="st1" points="70.43,139.01 26.49,113.85 26.52,105.95 52.66,90.93 95.86,115.23 95.75,124.12 	"/>
	<polygon class="st1" points="52.53,90.72 26.74,105.81 70.68,130.97 96,115.48 	"/>
	<g>
		<g>
			<polygon class="st2" points="46.34,94.26 46.31,85.97 81.13,66.2 124.19,90.4 124.05,98.76 89.82,119.15 			"/>
			<path class="st2" d="M45.29,92.61"/>
			<polyline class="st3" points="46.14,94.26 89.64,119.15 123.85,98.76 			"/>
			<line class="st3" x1="46.11" y1="85.97" x2="46.07" y2="97.38"/>
			<polyline class="st2" points="80.95,52.8 80.95,66.2 46.16,86.06 46.2,72.46 			"/>
			<polygon class="st2" points="80.88,65.73 46.14,85.88 89.64,110.77 123.9,90.22 			"/>
			<path class="st2" d="M78.25,63.52l-10.68,5.51c-1.29,0.71-1.76,1.58-2.03,2.59c-0.25,0.94-0.2,2.47,0.47,3.81
				c0.6,1.2,1.56,1.74,2.27,2.07c0.94,0.47,2.7,0.31,3.61-0.2c3.1-1.74,9.94-5.39,10.97-6.15c1.27-0.94,1.94-3.48,0.67-5.42
				C81.82,63.14,79.26,63.05,78.25,63.52z"/>
			<line class="st3" x1="46.11" y1="72.75" x2="46.07" y2="101.84"/>
			<polyline class="st3" points="89.55,126.62 89.6,110.37 123.99,90.4 123.96,107.07 			"/>
			<path class="st2" d="M62.14,72.15l-10.68,5.51c-1.29,0.71-1.76,1.58-2.03,2.59c-0.25,0.94-0.2,2.47,0.47,3.81
				c0.6,1.2,1.56,1.74,2.27,2.07c0.94,0.47,2.7,0.31,3.61-0.2c3.1-1.74,9.94-5.39,10.97-6.15c1.27-0.94,1.94-3.48,0.67-5.42
				C65.73,71.77,63.14,71.68,62.14,72.15z"/>
		</g>
		<g>
			<polygon class="st2" points="46.34,64.08 46.31,55.81 81.13,36.02 124.19,60.25 124.05,68.6 89.82,89 			"/>
			<path class="st2" d="M45.29,62.45"/>
			<polyline class="st3" points="46.14,64.08 89.64,89 123.85,68.6 			"/>
			<line class="st3" x1="46.11" y1="55.81" x2="46.07" y2="67.2"/>
			<polygon class="st2" points="46.16,55.9 46.2,42.3 80.95,22.62 80.95,36.02 			"/>
			<polygon class="st2" points="80.88,35.57 46.14,55.7 89.64,80.62 123.9,60.07 			"/>
			<path class="st2" d="M78.25,33.34l-10.68,5.51c-1.29,0.71-1.76,1.58-2.03,2.59c-0.25,0.94-0.2,2.47,0.47,3.81
				c0.6,1.2,1.56,1.74,2.27,2.07c0.94,0.47,2.7,0.31,3.61-0.2c3.1-1.74,9.94-5.39,10.97-6.15c1.27-0.94,1.94-3.48,0.67-5.42
				C81.82,32.97,79.26,32.88,78.25,33.34z"/>
			<line class="st3" x1="46.11" y1="42.57" x2="46.07" y2="92.84"/>
			<polyline class="st3" points="89.55,126.78 89.6,72.06 123.99,52.11 123.96,107.23 			"/>
			<path class="st2" d="M62.14,41.99L51.46,47.5c-1.29,0.71-1.76,1.58-2.03,2.59c-0.25,0.94-0.2,2.47,0.47,3.81
				c0.6,1.2,1.56,1.74,2.27,2.07c0.94,0.47,2.7,0.31,3.61-0.2c3.1-1.74,9.94-5.39,10.97-6.15c1.27-0.94,1.94-3.48,0.67-5.42
				C65.73,41.59,63.14,41.52,62.14,41.99z"/>
		</g>
	</g>
	<line class="st4" x1="70.65" y1="130.69" x2="70.6" y2="138.57"/>
	<path class="st1" d="M45.7,93.09l-11.64,6.44c-1.31,0.72-1.78,1.6-2.05,2.61c-0.25,0.95-0.2,2.5,0.47,3.85
		c0.61,1.22,1.58,1.76,2.3,2.09c0.95,0.47,2.73,0.32,3.65-0.2c3.13-1.76,10.9-6.33,11.94-7.09c1.28-0.95,1.96-3.51,0.68-5.47
		C49.33,92.71,46.72,92.62,45.7,93.09z"/>
</g>
</svg>
