<?xml version="1.0" encoding="utf-8"?>
<!-- Generator: Adobe Illustrator 28.0.0, SVG Export Plug-In . SVG Version: 6.00 Build 0)  -->
<svg version="1.1" id="Layer_1" xmlns="http://www.w3.org/2000/svg" xmlns:xlink="http://www.w3.org/1999/xlink" x="0px" y="0px"
	 viewBox="0 0 60 60" style="enable-background:new 0 0 60 60;" xml:space="preserve">
<style type="text/css">
	.st0{fill:#FFFFFF;stroke:#002F6C;stroke-width:1.1415;stroke-linecap:round;stroke-linejoin:round;stroke-miterlimit:10;}
	.st1{fill:none;stroke:#002F6C;stroke-width:1.1415;stroke-linecap:round;stroke-linejoin:round;stroke-miterlimit:10;}
</style>
<g>
	<polygon class="st0" points="12.67,44.67 12.66,40.95 28.28,32.08 47.6,42.94 47.54,46.69 32.18,55.84 	"/>
	<path class="st0" d="M12.2,43.93"/>
	<polyline class="st1" points="12.58,44.67 32.1,55.84 47.45,46.69 	"/>
	<line class="st0" x1="12.57" y1="40.95" x2="12.55" y2="46.06"/>
	<polygon class="st0" points="12.59,40.99 12.61,34.89 28.2,26.07 28.2,32.08 	"/>
	<polygon class="st0" points="28.17,31.87 12.58,40.91 32.1,52.08 47.47,42.86 	"/>
	<path class="st0" d="M26.99,30.88l-4.79,2.47c-0.58,0.32-0.79,0.71-0.91,1.16c-0.11,0.42-0.09,1.11,0.21,1.71
		c0.27,0.54,0.7,0.78,1.02,0.93c0.42,0.21,1.21,0.14,1.62-0.09c1.39-0.78,4.46-2.42,4.92-2.76c0.57-0.42,0.87-1.56,0.3-2.43
		C28.59,30.7,27.44,30.67,26.99,30.88z"/>
	<line class="st0" x1="12.57" y1="35.01" x2="12.55" y2="48.06"/>
	<polyline class="st1" points="32.06,59.19 32.08,51.89 47.51,42.94 47.5,50.42 	"/>
	<path class="st0" d="M19.76,34.75l-4.79,2.47c-0.58,0.32-0.79,0.71-0.91,1.16c-0.11,0.42-0.09,1.11,0.21,1.71
		c0.27,0.54,0.7,0.78,1.02,0.93c0.42,0.21,1.21,0.14,1.62-0.09c1.39-0.78,4.46-2.42,4.92-2.76c0.57-0.42,0.87-1.56,0.3-2.43
		C21.37,34.57,20.21,34.54,19.76,34.75z"/>
</g>
<g>
	<polygon class="st0" points="12.67,32 12.66,28.28 28.28,19.41 47.6,30.27 47.54,34.02 32.18,43.17 	"/>
	<path class="st0" d="M12.2,31.26"/>
	<polyline class="st1" points="12.58,32 32.1,43.17 47.45,34.02 	"/>
	<line class="st0" x1="12.57" y1="28.28" x2="12.55" y2="33.39"/>
	<polygon class="st0" points="12.59,28.32 12.61,22.22 28.2,13.4 28.2,19.41 	"/>
	<polygon class="st0" points="28.17,19.2 12.58,28.24 32.1,39.41 47.47,30.19 	"/>
	<path class="st0" d="M26.99,18.21l-4.79,2.47c-0.58,0.32-0.79,0.71-0.91,1.16c-0.11,0.42-0.09,1.11,0.21,1.71
		c0.27,0.54,0.7,0.78,1.02,0.93c0.42,0.21,1.21,0.14,1.62-0.09c1.39-0.78,4.46-2.42,4.92-2.76c0.57-0.42,0.87-1.56,0.3-2.43
		C28.59,18.03,27.44,18,26.99,18.21z"/>
	<line class="st0" x1="12.57" y1="22.34" x2="12.55" y2="35.39"/>
	<polyline class="st1" points="32.06,46.52 32.08,39.22 47.51,30.27 47.5,37.75 	"/>
	<path class="st0" d="M19.76,22.08l-4.79,2.47c-0.58,0.32-0.79,0.71-0.91,1.16c-0.11,0.42-0.09,1.11,0.21,1.71
		c0.27,0.54,0.7,0.78,1.02,0.93c0.42,0.21,1.21,0.14,1.62-0.09c1.39-0.78,4.46-2.42,4.92-2.76c0.57-0.42,0.87-1.56,0.3-2.43
		C21.37,21.91,20.21,21.87,19.76,22.08z"/>
</g>
<g>
	<polygon class="st0" points="12.66,19.34 12.64,15.62 28.27,6.75 47.59,17.62 47.52,21.36 32.17,30.51 	"/>
	<path class="st0" d="M12.19,18.61"/>
	<polyline class="st1" points="12.57,19.34 32.08,30.51 47.44,21.36 	"/>
	<line class="st0" x1="12.56" y1="15.62" x2="12.54" y2="20.74"/>
	<polygon class="st0" points="12.58,15.66 12.6,9.56 28.18,0.74 28.18,6.75 	"/>
	<polygon class="st0" points="28.16,6.54 12.57,15.58 32.08,26.75 47.46,17.53 	"/>
	<path class="st0" d="M26.98,5.55l-4.79,2.47c-0.58,0.32-0.79,0.71-0.91,1.16c-0.11,0.42-0.09,1.11,0.21,1.71
		c0.27,0.54,0.7,0.78,1.02,0.93c0.42,0.21,1.21,0.14,1.62-0.09c1.39-0.78,4.46-2.42,4.92-2.76c0.57-0.42,0.87-1.56,0.3-2.43
		C28.58,5.38,27.43,5.34,26.98,5.55z"/>
	<line class="st0" x1="12.56" y1="9.69" x2="12.54" y2="22.74"/>
	<polyline class="st1" points="32.05,53 32.07,26.57 47.5,17.62 47.43,43.51 	"/>
	<path class="st0" d="M19.75,9.42l-4.79,2.47c-0.58,0.32-0.79,0.71-0.91,1.16c-0.11,0.42-0.09,1.11,0.21,1.71
		c0.27,0.54,0.7,0.78,1.02,0.93c0.42,0.21,1.21,0.14,1.62-0.09c1.39-0.78,4.46-2.42,4.92-2.76c0.57-0.42,0.87-1.56,0.3-2.43
		C21.36,9.25,20.2,9.21,19.75,9.42z"/>
</g>
</svg>
