<?xml version="1.0" encoding="UTF-8"?><svg id="Layer_1" xmlns="http://www.w3.org/2000/svg" viewBox="0 0 150 150.01"><defs><style>.cls-1,.cls-2{fill:#fff;}.cls-3{fill:none;}.cls-3,.cls-2{stroke:#002f6c;stroke-linecap:round;stroke-linejoin:round;stroke-width:2.58px;}</style></defs><rect class="cls-1" x="0" y="140.01" width="150" height="10"/><rect class="cls-1" width="150" height="10"/><polyline class="cls-2" points="113.73 112.56 83.02 130.74 38.69 105.66"/><polyline class="cls-3" points="38.49 105.66 82.83 130.74 114.31 112.09"/><line class="cls-2" x1="38.41" y1="104.26" x2="38.42" y2="113.28"/><polyline class="cls-3" points="82.75 138.24 82.79 130.61 114.02 111.99 113.92 119.25"/><line class="cls-3" x1="104.64" y1="100.67" x2="113.34" y2="105.5"/><path class="cls-3" d="m86.44,120.01s20.53-12.37,24.05-14.42c3.53-2.05,8.55,4.5,1.45,7.57l-25.5,15.3"/><line class="cls-3" x1="38.43" y1="103.6" x2="82.77" y2="128.67"/><path class="cls-3" d="m86.44,128.45c-5.19,2.94-13.07-9.14-4.36-14.88l14.66-8.51,1.33-14.55s.41-5.94,3.32-5.74,3.73,3.48,3.53,5.94-1.47,13.23-1.47,13.23c0,0,.83,5.53-4.15,8.4"/><path class="cls-3" d="m38.99,103.97c-5.94-3.01-6.42-10.3.23-14.53l14.66-8.51,1.33-14.55s.35-4.88,3.25-5.17,5.74,2.34,7.98,3.44"/><line class="cls-3" x1="61.36" y1="61.92" x2="103.43" y2="85.71"/><line class="cls-3" x1="53.54" y1="80.47" x2="94.82" y2="103.83"/></svg>