<?xml version="1.0" encoding="UTF-8"?><svg id="Layer_1" xmlns="http://www.w3.org/2000/svg" viewBox="0 0 43.5 53.23"><defs><style>.cls-1{fill:#fff;}.cls-1,.cls-2{stroke:#002f6c;stroke-linecap:round;stroke-linejoin:round;stroke-width:1.14px;}.cls-2{fill:none;}</style></defs><polygon class="cls-1" points="20.08 52.66 .57 41.49 .58 37.97 12.19 31.3 31.37 42.09 31.33 46.04 20.08 52.66"/><polygon class="cls-1" points="12.13 31.21 .68 37.92 20.19 49.09 31.43 42.2 12.13 31.21"/><line class="cls-1" x1="28.44" y1="39.81" x2="28.42" y2="45.02"/><polyline class="cls-2" points="8.95 32.5 28.46 43.67 42.87 35.06"/><line class="cls-1" x1="42.93" y1="31.39" x2="42.92" y2="36.78"/><polygon class="cls-1" points="8.95 32.5 8.92 28.78 42.93 31.39 42.87 35.06 28.46 43.67 8.95 32.5"/><polygon class="cls-1" points="23.64 20.4 8.95 28.74 28.46 39.91 42.93 31.39 23.64 20.4"/><path class="cls-1" d="m22.68,18.53l-5.17,2.86c-.58.32-.79.71-.91,1.16-.11.42-.09,1.11.21,1.71.27.54.7.78,1.02.93.42.21,1.21.14,1.62-.09,1.39-.78,4.84-2.81,5.3-3.15.57-.42.87-1.56.3-2.43-.76-1.16-1.92-1.2-2.37-.99Z"/><polyline class="cls-2" points="12.13 15.84 31.65 27.01 42.87 20.2"/><path class="cls-1" d="m20.9,5.28l-5.17,2.86c-.58.32-.79.71-.91,1.16-.11.42-.09,1.11.21,1.71.27.54.7.78,1.02.93.42.21,1.21.14,1.62-.09,1.39-.78,4.84-2.81,5.3-3.15.57-.42.87-1.56.3-2.43-.76-1.16-1.92-1.2-2.37-.99Z"/><polygon class="cls-1" points="12.17 16.95 12.17 13.19 23.65 6.69 42.89 17.42 42.91 21.3 31.68 28.12 31.28 27.89 12.17 16.95"/><polyline class="cls-2" points="12.12 13.12 12.12 16.95 8.92 28.78 8.92 35.89"/><polygon class="cls-1" points="12.14 13.16 12.16 7.06 23.61 .57 23.61 6.58 12.14 13.16"/><polygon class="cls-1" points="23.56 6.45 12.13 13.08 31.65 24.25 42.85 17.44 23.56 6.45"/><path class="cls-1" d="m20.95,4.97l-5.17,2.86c-.58.32-.79.71-.91,1.16-.11.42-.09,1.11.21,1.71.27.54.7.78,1.02.93.42.21,1.21.14,1.62-.09,1.39-.78,4.84-2.81,5.3-3.15.57-.42.87-1.56.3-2.43-.76-1.16-1.92-1.2-2.37-.99Z"/><polyline class="cls-2" points="28.42 47.02 28.43 39.81 31.62 27.61 31.63 21.15 42.93 14.53 42.92 38.78"/><path class="cls-1" d="m15.49,22.44l-4.33,2.23c-.58.32-.79.71-.91,1.16-.11.42-.09,1.11.21,1.71.27.54.7.78,1.02.93.42.21,1.21.14,1.62-.09,1.39-.78,4-2.18,4.46-2.52.57-.42.87-1.56.3-2.43-.76-1.16-1.92-1.2-2.37-.99Z"/><path class="cls-1" d="m8.92,31.57l-5.17,2.86c-.58.32-.79.71-.91,1.16-.11.42-.09,1.11.21,1.71.27.54.7.78,1.02.93.42.21,1.21.14,1.62-.09,1.39-.78,4.84-2.81,5.3-3.15.57-.42.87-1.56.3-2.43-.76-1.16-1.92-1.2-2.37-.99Z"/><line class="cls-1" x1="20.27" y1="52.38" x2="20.27" y2="48.86"/></svg>