<?xml version="1.0" encoding="UTF-8"?>
<svg id="Layer_1" xmlns="http://www.w3.org/2000/svg" version="1.1" viewBox="0 0 150 150">
  <!-- Generator: Adobe Illustrator 29.7.1, SVG Export Plug-In . SVG Version: 2.1.1 Build 8)  -->
  <defs>
    <style>
      .st0, .st1, .st2 {
        fill: #fff;
      }

      .st3 {
        fill: none;
      }

      .st3, .st1, .st2 {
        stroke: #002f6c;
        stroke-linecap: round;
        stroke-linejoin: round;
      }

      .st3, .st2 {
        stroke-width: 2.54px;
      }

      .st1 {
        stroke-width: 2.56px;
      }
    </style>
  </defs>
  <g>
    <rect class="st0" x="-.03" y="140.17" width="150" height="10"/>
    <rect class="st0" x="-.03" y=".16" width="150" height="10"/>
  </g>
  <g>
    <g>
      <polygon class="st2" points="25.28 90.31 25.22 82.22 78.84 57.49 132.39 81.17 132.23 89.35 79.39 114.69 25.28 90.31"/>
      <path class="st2" d="M23.97,88.72"/>
      <polyline class="st3" points="25.03 90.31 79.14 114.69 132.01 89.35"/>
      <line class="st3" x1="25" y1="82.22" x2="24.95" y2="93.36"/>
      <polyline class="st2" points="78.59 44.38 78.59 57.49 25.06 82.28 25.08 68.98"/>
      <line class="st3" x1="25" y1="69.27" x2="24.95" y2="97.72"/>
      <polyline class="st3" points="79.06 121.97 79.11 106.08 132.17 81.17 132.12 97.48"/>
      <polygon class="st2" points="78.5 57.03 25.03 82.11 79.14 106.47 132.03 81 78.5 57.03"/>
      <path class="st2" d="M72.57,54.85l-15.5,6.54c-1.61.7-2.19,1.55-2.52,2.53-.31.92-.25,2.42.58,3.73.75,1.18,1.94,1.7,2.83,2.03,1.16.46,3.36.31,4.49-.2,3.86-1.7,14.56-6.43,15.84-7.17,1.58-.92,2.41-3.4.83-5.3-2.11-2.53-5.3-2.62-6.55-2.16Z"/>
      <path class="st2" d="M49.94,65.08l-15.5,6.54c-1.61.7-2.19,1.55-2.52,2.53-.31.92-.25,2.42.58,3.73.75,1.18,1.94,1.7,2.83,2.03,1.16.46,3.36.31,4.49-.2,3.86-1.7,14.56-6.43,15.84-7.17,1.58-.92,2.41-3.4.83-5.3-2.11-2.55-5.3-2.62-6.55-2.16Z"/>
    </g>
    <g>
      <polygon class="st2" points="25.44 60.8 25.42 52.69 79 27.96 132.59 51.65 132.42 59.82 79.58 85.16 25.44 60.8"/>
      <path class="st2" d="M24.17,59.19"/>
      <polyline class="st3" points="25.22 60.8 79.34 85.16 132.17 59.82"/>
      <line class="st3" x1="25.17" y1="52.69" x2="25.14" y2="63.84"/>
      <polygon class="st2" points="25.22 52.78 25.28 39.48 78.78 14.86 78.78 27.96 25.22 52.78"/>
      <line class="st3" x1="25.17" y1="39.74" x2="25.14" y2="68.2"/>
      <polygon class="st2" points="78.7 27.51 25.22 52.58 79.34 76.96 132.23 51.47 78.7 27.51"/>
      <polyline class="st3" points="79.22 121.97 79.28 67.87 132.37 42.97 132.31 97.48"/>
      <path class="st1" d="M73.66,25.54l-16.26,7.46c-1.35.61-1.88,1.45-2.23,2.43-.32.92-.39,2.47.17,3.85.51,1.25,1.44,1.85,2.12,2.25.91.53,2.68.52,3.63.08,3.25-1.5,15.51-7.41,16.6-8.09,1.34-.84,2.21-3.33,1.09-5.37-1.5-2.73-4.08-3.01-5.12-2.62Z"/>
      <path class="st1" d="M51.97,35.61l-16.26,7.46c-1.35.61-1.88,1.45-2.23,2.43-.32.92-.39,2.47.17,3.85.51,1.25,1.44,1.85,2.12,2.25.91.53,2.68.52,3.63.08,3.25-1.5,15.51-7.41,16.6-8.09,1.34-.84,2.21-3.33,1.09-5.37-1.5-2.73-4.08-3.01-5.12-2.62Z"/>
    </g>
  </g>
</svg>