<?xml version="1.0" encoding="UTF-8"?><svg id="Layer_1" xmlns="http://www.w3.org/2000/svg" viewBox="0 0 150 150.01"><defs><style>.cls-1,.cls-2{fill:#fff;}.cls-1,.cls-3{stroke:#002f6c;stroke-linecap:round;stroke-linejoin:round;stroke-width:2.56px;}.cls-3{fill:none;}</style></defs><rect class="cls-2" x="0" y="140.01" width="150" height="10"/><rect class="cls-2" width="150" height="10"/><polygon class="cls-1" points="28.56 106.15 28.53 97.82 79.47 69.04 122.77 93.4 122.63 101.8 72.29 131.2 28.56 106.15"/><polyline class="cls-3" points="28.37 106.15 72.1 131.2 122.44 101.8"/><line class="cls-1" x1="28.34" y1="97.82" x2="28.3" y2="109.28"/><polygon class="cls-1" points="28.38 97.91 28.42 84.23 79.28 55.57 79.28 69.04 28.38 97.91"/><polygon class="cls-1" points="79.22 68.58 28.37 97.72 72.1 122.76 122.48 93.21 79.22 68.58"/><path class="cls-1" d="m73.04,66.89l-15.64,8.7c-1.3.72-1.77,1.59-2.04,2.6-.25.94-.2,2.49.47,3.83.6,1.21,1.58,1.74,2.28,2.08.94.46,2.71.31,3.63-.2,3.12-1.75,14.9-8.58,15.93-9.34,1.28-.94,1.95-3.49.67-5.44-1.71-2.61-4.3-2.69-5.31-2.22Z"/><line class="cls-1" x1="28.34" y1="84.51" x2="28.3" y2="113.76"/><polyline class="cls-3" points="72.02 138.69 72.06 122.35 122.58 93.4 122.54 110.15"/><path class="cls-1" d="m52.2,78.6l-15.64,8.7c-1.3.72-1.77,1.59-2.04,2.6-.25.94-.2,2.49.47,3.83.6,1.21,1.58,1.74,2.28,2.08.94.46,2.71.31,3.63-.2,3.12-1.75,14.9-8.58,15.93-9.34,1.28-.94,1.95-3.49.67-5.44-1.71-2.61-4.3-2.69-5.31-2.22Z"/></svg>