<?xml version="1.0" encoding="UTF-8"?><svg id="Layer_1" xmlns="http://www.w3.org/2000/svg" viewBox="0 0 150 150.01"><defs><style>.cls-1,.cls-2{fill:#fff;}.cls-2,.cls-3{stroke:#002f6c;stroke-linecap:round;stroke-linejoin:round;stroke-width:2.57px;}.cls-3{fill:none;}</style></defs><rect class="cls-1" x="0" y="140.01" width="150" height="10"/><rect class="cls-1" width="150" height="10"/><polygon class="cls-2" points="37.32 106.08 37.3 97.7 72.5 77.71 116.03 102.19 115.89 110.64 81.29 131.25 37.32 106.08"/><polyline class="cls-3" points="37.13 106.08 81.1 131.25 115.7 110.64"/><line class="cls-2" x1="37.1" y1="97.7" x2="37.06" y2="109.22"/><polygon class="cls-2" points="37.15 97.79 37.19 84.04 72.31 64.16 72.31 77.71 37.15 97.79"/><polygon class="cls-2" points="72.25 77.24 37.13 97.6 81.1 122.78 115.73 102 72.25 77.24"/><path class="cls-2" d="m69.59,75l-10.79,5.57c-1.3.72-1.78,1.6-2.05,2.61-.25.95-.2,2.51.47,3.85.61,1.22,1.58,1.75,2.3,2.09.95.46,2.72.31,3.65-.2,3.14-1.75,10.05-5.46,11.09-6.22,1.28-.95,1.96-3.51.68-5.47-1.72-2.62-4.32-2.7-5.33-2.23Z"/><line class="cls-2" x1="37.1" y1="84.32" x2="37.06" y2="113.73"/><polyline class="cls-3" points="81.02 138.79 81.06 122.36 115.84 102.19 115.8 119.03"/><path class="cls-2" d="m53.31,83.73l-10.79,5.57c-1.3.72-1.78,1.6-2.05,2.61-.25.95-.2,2.51.47,3.85.61,1.22,1.58,1.75,2.3,2.09.95.46,2.72.31,3.65-.2,3.14-1.75,10.05-5.46,11.09-6.22,1.28-.95,1.96-3.51.68-5.47-1.72-2.62-4.32-2.7-5.33-2.23Z"/></svg>