<?xml version="1.0" encoding="UTF-8"?><svg id="Layer_1" xmlns="http://www.w3.org/2000/svg" viewBox="0 0 150 150.01"><defs><style>.cls-1,.cls-2{fill:#fff;}.cls-3{fill:none;}.cls-3,.cls-2{stroke:#002f6c;stroke-linecap:round;stroke-linejoin:round;stroke-width:2.56px;}</style></defs><rect class="cls-1" y="140.01" width="150" height="10"/><rect class="cls-1" width="150" height="10"/><line class="cls-3" x1="80.9" y1="122.26" x2="80.85" y2="133.97"/><polyline class="cls-3" points="37.08 105.84 80.92 130.94 113.3 111.59"/><line class="cls-3" x1="113.45" y1="103.34" x2="113.41" y2="115.46"/><polygon class="cls-2" points="37.08 105.84 37.04 97.48 113.45 103.34 113.3 111.59 80.92 130.94 37.08 105.84"/><polygon class="cls-2" points="70.09 78.65 37.08 97.39 80.92 122.49 113.45 103.34 70.09 78.65"/><path class="cls-2" d="m67.95,74.45l-11.64,6.43c-1.04.52-1.79,1.47-2.04,2.61-.28,1.29-.12,2.64.47,3.82.48.94,1.28,1.68,2.25,2.09,1.19.43,2.5.36,3.64-.2,3.12-1.73,10.88-6.29,11.91-7.06,1.52-1.41,1.81-3.72.67-5.46-1-1.9-3.2-2.83-5.26-2.22Z"/><polyline class="cls-3" points="44.25 68.4 88.09 93.5 113.3 78.2"/><path class="cls-2" d="m63.98,44.68l-11.64,6.4c-1.04.52-1.79,1.47-2.04,2.61-.28,1.3-.11,2.65.47,3.84.48.94,1.28,1.68,2.25,2.09,1.2.43,2.52.36,3.66-.2,3.12-1.75,10.88-6.31,11.91-7.08,1.53-1.4,1.81-3.71.67-5.44-1-1.91-3.21-2.85-5.28-2.22Z"/><polygon class="cls-2" points="44.32 70.9 44.32 62.45 70.11 47.85 113.41 72.04 113.39 80.67 88.18 96 87.25 95.48 44.32 70.9"/><polyline class="cls-3" points="44.2 62.29 44.2 70.9 37.04 97.48 37.01 113.46"/><polygon class="cls-2" points="44.25 62.38 44.29 48.68 70.04 34.09 70.04 47.6 44.25 62.38"/><polygon class="cls-2" points="69.91 47.31 44.25 62.2 88.09 87.3 113.27 71.98 69.91 47.31"/><path class="cls-2" d="m63.98,43.96l-11.55,6.47c-.99.53-1.69,1.47-1.93,2.56-.27,1.3-.1,2.65.47,3.84.48.93,1.28,1.66,2.25,2.07,1.19.43,2.5.36,3.64-.2,3.12-1.73,10.88-6.29,11.91-7.06,1.52-1.41,1.81-3.72.67-5.46-1.01-2-3.34-2.95-5.46-2.22Z"/><polyline class="cls-3" points="80.85 138.46 80.85 122.26 88.02 94.85 88.04 80.34 113.45 65.46 113.41 119.95"/><path class="cls-2" d="m51.8,83.23l-9.73,5.01c-1.05.52-1.8,1.49-2.04,2.63-.28,1.3-.11,2.65.47,3.84.49.93,1.28,1.67,2.25,2.09,1.19.41,2.5.33,3.64-.2,3.12-1.75,8.99-4.92,10-5.68,1.53-1.4,1.81-3.71.67-5.44-.99-1.91-3.19-2.85-5.26-2.25Z"/></svg>