<?xml version="1.0" encoding="UTF-8"?><svg id="Layer_1" xmlns="http://www.w3.org/2000/svg" viewBox="0 0 150 150.01"><defs><style>.cls-1,.cls-2{fill:#fff;}.cls-2,.cls-3{stroke:#002f6c;stroke-linecap:round;stroke-linejoin:round;stroke-width:2.56px;}.cls-3{fill:none;}</style></defs><rect class="cls-1" x="0" y="140.01" width="150" height="10"/><rect class="cls-1" width="150" height="10"/><polygon class="cls-2" points="75.08 138.71 31.33 113.66 31.36 105.77 57.39 90.82 100.39 115.01 100.3 123.89 75.08 138.71"/><polygon class="cls-2" points="57.25 90.61 31.58 105.66 75.32 130.7 100.53 115.25 57.25 90.61"/><line class="cls-3" x1="75.26" y1="131.13" x2="75.19" y2="138.59"/><polygon class="cls-2" points="50.59 93.57 50.59 85.14 76.33 70.59 119.72 95.57 119.56 103.8 94.34 118.64 50.59 93.57"/><polyline class="cls-3" points="50.66 94.02 94.4 119.07 119.56 103.8"/><line class="cls-3" x1="119.72" y1="95.57" x2="119.67" y2="107.65"/><line class="cls-3" x1="94.36" y1="110.41" x2="94.32" y2="122.09"/><polygon class="cls-2" points="50.66 90.25 50.71 72.09 76.4 57.54 76.4 75.5 59.56 85.14 50.59 85.14 50.66 90.25"/><polygon class="cls-2" points="76.45 70.93 50.66 85.59 94.4 110.64 119.72 95.57 76.45 70.93"/><path class="cls-2" d="m70.32,68.1l-11.59,6.41c-1.3.72-1.77,1.59-2.04,2.6-.25.94-.2,2.49.47,3.83.61,1.21,1.57,1.75,2.29,2.09.94.47,2.71.31,3.63-.2,3.12-1.75,10.85-6.3,11.88-7.06,1.28-.94,1.95-3.5.67-5.45-1.7-2.6-4.3-2.69-5.31-2.22Z"/><polyline class="cls-3" points="94.32 126.58 94.36 102.59 119.72 87.77 119.67 112.14"/><path class="cls-2" d="m49.72,92.38l-11.59,6.41c-1.3.72-1.77,1.59-2.04,2.6-.25.94-.2,2.49.47,3.83.61,1.21,1.57,1.75,2.29,2.09.94.47,2.71.31,3.63-.2,3.12-1.75,10.85-6.3,11.88-7.06,1.28-.94,1.95-3.5.67-5.45-1.7-2.6-4.3-2.69-5.31-2.22Z"/></svg>