<?xml version="1.0" encoding="UTF-8"?><svg id="Layer_1" xmlns="http://www.w3.org/2000/svg" viewBox="0 0 150 150.01"><defs><style>.cls-1,.cls-2{fill:#fff;}.cls-2,.cls-3{stroke:#002f6c;stroke-linecap:round;stroke-linejoin:round;stroke-width:2.56px;}.cls-3{fill:none;}</style></defs><rect class="cls-1" x="0" y="140.01" width="150" height="10"/><rect class="cls-1" width="150" height="10"/><polyline class="cls-3" points="40.62 107.45 84.36 132.48 109.5 117.22"/><polygon class="cls-2" points="66.3 84.02 40.62 99.03 84.36 124.06 109.54 108.64 66.3 84.02"/><path class="cls-2" d="m60.27,81.55l-11.58,6.41c-1.3.72-1.77,1.59-2.04,2.6-.25.94-.2,2.49.47,3.83.6,1.21,1.57,1.75,2.29,2.08.94.47,2.71.31,3.63-.2,3.11-1.75,10.84-6.3,11.88-7.06,1.28-.94,1.95-3.5.67-5.44-1.7-2.6-4.3-2.69-5.31-2.22Z"/><polygon class="cls-2" points="40.64 78.66 40.64 70.24 66.39 55.67 109.65 79.45 109.52 88.41 84.38 103.69 40.64 78.66"/><polyline class="cls-3" points="40.8 78.57 84.51 103.6 109.65 88.34"/><line class="cls-3" x1="84.47" y1="94.95" x2="84.42" y2="106.63"/><line class="cls-3" x1="40.77" y1="70.24" x2="40.73" y2="81.71"/><polygon class="cls-2" points="40.8 70.33 40.84 56.66 66.52 42.12 66.52 55.58 40.8 70.33"/><polygon class="cls-2" points="66.45 55.13 40.8 70.15 84.51 95.18 109.7 79.76 66.45 55.13"/><path class="cls-2" d="m60.45,52.67l-11.58,6.41c-1.3.72-1.77,1.59-2.04,2.6-.25.94-.2,2.49.47,3.83.6,1.21,1.57,1.75,2.29,2.08.94.47,2.71.31,3.63-.2,3.11-1.75,10.84-6.3,11.88-7.06,1.28-.94,1.95-3.5.67-5.44-1.73-2.6-4.3-2.69-5.31-2.22Z"/><polyline class="cls-3" points="40.8 45.28 84.51 70.3 109.65 55.02"/><polygon class="cls-2" points="40.8 48.28 40.8 39.85 66.52 25.29 109.81 49.06 109.65 58.05 84.51 73.31 40.8 48.28"/><line class="cls-3" x1="40.77" y1="39.18" x2="40.73" y2="113.68"/><polygon class="cls-2" points="40.8 39.27 40.84 25.6 66.52 11.06 66.52 24.53 40.8 39.27"/><polygon class="cls-2" points="66.39 24.21 40.8 39.09 84.51 64.12 109.63 48.84 66.39 24.21"/><path class="cls-2" d="m60.45,21.61l-11.61,6.41c-1.3.72-1.77,1.59-2.04,2.6-.25.94-.2,2.49.47,3.83.6,1.21,1.57,1.75,2.29,2.08.94.47,2.71.31,3.63-.2,3.11-1.75,10.84-6.3,11.88-7.06,1.28-.94,1.95-3.5.67-5.44-1.7-2.62-4.28-2.69-5.29-2.22Z"/><polyline class="cls-3" points="84.42 138.62 84.47 57.17 109.81 42.34 109.77 124.19"/></svg>