<?xml version="1.0" encoding="utf-8"?>
<!-- Generator: Adobe Illustrator 25.3.1, SVG Export Plug-In . SVG Version: 6.00 Build 0)  -->
<svg version="1.1" id="Layer_1" xmlns="http://www.w3.org/2000/svg" xmlns:xlink="http://www.w3.org/1999/xlink" x="0px" y="0px"
	 width="284.2px" height="112.9px" viewBox="0 0 284.2 112.9" style="enable-background:new 0 0 284.2 112.9;" xml:space="preserve"
	>
<style type="text/css">
	.st0{opacity:0.5;fill:#FFFFFF;}
	.st1{fill:#FFFFFF;}
	.st2{opacity:0.5;}
</style>
<g>
	<path class="st0" d="M105.6,26.9c-0.5,0.4-1.1,1-1.7,1.7c-0.6,0.7-1.5,1.5-2.4,2.6c-0.3,0.4-1.1,1.3-2.1,2.8
		c-1,1.4-1.7,2.6-2.7,4.5c-0.9,1.7-2.1,3.8-3.5,6.4c-2.5-2.6-4.4-4.4-4.6-4.6c0,0-0.1-0.1-0.1-0.1c-0.1-0.1-0.2-0.1-0.3-0.2
		c0,0-0.1,0-0.1,0c0,0-0.1,0-0.1,0c-2.1-0.7-2.5-0.7-2.5-0.7c-0.6-0.1-1.5-0.3-2.8-0.2c-0.7,0-1.2,0.2-1.5,0.2c-0.2,0-1,0.2-2,0.6
		c-1.1,0.4-1.8,0.9-2.4,1.2c-0.4,0.2-1.1,0.6-1.9,1.2c-1.1,0.9-1.9,1.6-2.5,2.3c-0.7,0.8-1.2,1.4-1.8,2.1c-0.8,1-1.3,1.8-1.7,2.3
		c-0.3,0.5-0.7,1-1.2,1.8c-0.1,0.2-0.5,0.9-1.2,2.1c-0.5,0.9-0.8,1.7-1.4,2.8c-1,2.1-1.6,3.4-1.6,3.4c0,0-1.6,3.4-3.5,7.6
		c-0.8,1.7-1.5,3.2-2.3,4.7c-1.9,3.8-3.7,7-5.5,9.7c-1.5,2.2-3.3,4.3-5.4,6.2c-1.5,1.3-3.2,2.6-5,3.8c-4.5,2.8-10,4.3-16.7,4.3
		l-0.1,0c-2.4,0-4.7-0.2-6.9-0.6l0-0.1l0,0.1c-0.1,0-0.1,0-0.2,0c-1.9-0.3-3.7-0.8-5.5-1.4c-8.8-2.7-11.9-6-12.5-6.7
		C0,86.6,0,86.6,0,86.6c0.2,0.1,0.4,0.3,0.6,0.4c0.2,0.1,0.4,0.3,0.7,0.4c0.4,0.2,0.8,0.4,1.2,0.6c0.2,0.1,0.4,0.2,0.6,0.2
		c0,0,1.7,0.5,2.8,0.8c1.1,0.3,2.1,0.5,3.1,0.8c0.6,0.2,1.3,0.3,2,0.4c2.1,0.4,3.4,0.7,5.2,0.9c1.2,0.1,2.3,0.1,2.9,0.1
		c0.2,0,0.5,0,0.9,0c0.3,0,0.5,0,0.8,0c0.2,0,0.5,0,0.8,0c0.3,0,0.5,0,0.7-0.1c0.3,0,0.6-0.1,0.9-0.1c0.3,0,0.6-0.1,0.9-0.1
		c0.2,0,0.4-0.1,0.6-0.1c0.3,0,0.6-0.1,0.8-0.1c0.2,0,0.3-0.1,0.5-0.1c0.2,0,0.3-0.1,0.5-0.1c0.1,0,0.3-0.1,0.4-0.1
		c0.2-0.1,0.5-0.1,0.7-0.2c0.4-0.1,0.8-0.2,1.2-0.3c0.4-0.1,0.8-0.2,1.2-0.4c0.1,0,0.2-0.1,0.3-0.1c0.4-0.1,0.7-0.3,1-0.4
		c0.5-0.2,0.9-0.4,1.2-0.6c0.4-0.2,0.7-0.4,0.9-0.5c0,0,0.3-0.2,0.7-0.5c0.2-0.1,0.4-0.3,0.7-0.5c0.3-0.2,0.6-0.4,1-0.7
		c0.9-0.6,1.8-1.3,2.7-2c0.2-0.2,0.4-0.3,0.6-0.5c0.2-0.2,0.5-0.5,0.8-0.7c0.3-0.3,0.7-0.6,1-1c0.3-0.3,0.6-0.6,0.9-0.9
		c1.2-1.2,2.3-2.4,2.6-2.9c0.5-0.7,0.9-1.3,1.1-1.6c0.4-0.7,0.8-1.4,1.2-2c0.1-0.2,0.3-0.5,0.4-0.7c0.4-0.6,0.7-1.2,1-1.8
		c0.5-0.9,1-1.8,1.4-2.6c0.5-0.9,0.9-1.7,1.3-2.4c0.4-0.8,0.7-1.4,1-2c0.9-1.7,1.3-2.7,1.3-2.7c3.2-7,5.7-12.4,7.7-15.8
		c1.9-3.4,4.2-6.2,7.1-8.4c2.9-2.3,5.7-3.4,8.5-3.4c0.6,0,1.2,0,1.7,0.1c2.9,0.5,6.7,2.9,9.4,4.6l0.1,0.1l0.6,0.4l0.3,0.2l0.5-1
		c2.5-5.4,6.8-11,9.9-14.7c0.1-0.1,0.6-0.7,1.2-1.2l0.8-0.8C102.4,23.5,104,25.4,105.6,26.9L105.6,26.9z"/>
	<g>
		<path class="st1" d="M122,56.1c-1.9,3.5-4.5,8.8-7.7,15.8c-2.7,5.8-5.3,10.7-7.7,14.4c-2.5,3.8-6,7.2-10.4,10
			c-4.5,2.9-10,4.3-16.6,4.3l-0.1,0c-7.2,0-13.6-1.7-19.1-5.1c-0.7-0.4-3-1.9-3.7-2.4c-1.1-0.5-2.2-1.1-3.3-1.8
			c-1-0.6-3.9-2.5-5.6-3.8L47,87.3c-1.5,1.4-3.2,2.6-5,3.8c-4.5,2.9-10,4.3-16.6,4.3l-0.1,0c-2.4,0-4.7-0.2-6.9-0.6l0,0c0,0,0,0,0,0
			v18h112.9V46.3c-0.7,0.4-1.4,0.9-2.1,1.4C126.2,49.9,123.9,52.7,122,56.1z"/>
		<path class="st1" d="M28.6,61.4c1.7-2.9,3.7-6.9,5.9-11.9l1.4-3.3c3.2-7.2,6.3-13.1,9.3-17.6c3.1-4.5,6.8-8.2,11.2-10.8
			c5.5-3.3,10.7-4.9,16-4.9c10.3,0,18.8,2.7,27.5,8.9l0.9,0.7c1.6,1,3.1,2.9,4.6,4.3l0.1,0.1c1.6-1.4,3.2-2.6,5-3.7
			c5.5-3.3,10.7-4.9,16-4.9c1.6,0,3.1,0.1,4.6,0.3V0H18.3v70.2c1.5-0.4,2.8-1.1,4-1.9C24.8,66.6,27,64.2,28.6,61.4z"/>
	</g>
	<path class="st1" d="M83.4,39c-2.8,0-5.5,1.1-8.5,3.4c-2.8,2.2-5.2,5-7.1,8.4c-1.9,3.5-4.5,8.8-7.7,15.8c-0.8,1.7-1.5,3.2-2.3,4.7
		l0.6,0.3c2.8,1.7,7,3.5,8.4,3.9c0.8,0.2,1.7,0.3,2.7,0.3c1,0,1.9-0.1,2.7-0.3c1.6-0.4,3-1.1,4.2-1.9c2.6-1.8,4.7-4.1,6.3-7
		c1.7-2.9,3.7-6.9,5.9-11.9l1.4-3.3c1-2.4,2.1-4.6,3.1-6.7C89.3,38.7,83.9,39,83.4,39z"/>
	<path class="st1" d="M131.1,46.3c0.2-0.1,0.4-0.2,0.5-0.3C131.5,46,131.3,46.1,131.1,46.3L131.1,46.3z"/>
	<path class="st1" d="M105.3,34.3C105.3,34.3,105.2,34.3,105.3,34.3C105.2,34.3,105.2,34.3,105.3,34.3z"/>
	<path class="st1" d="M18.1,94.8c0.1,0,0.1,0,0.2,0v0C18.2,94.8,18.2,94.8,18.1,94.8z"/>
	<path class="st1" d="M18.3,94.8C18.3,94.8,18.3,94.8,18.3,94.8L18.3,94.8C18.3,94.8,18.3,94.8,18.3,94.8L18.3,94.8z"/>
	<path class="st1" d="M105.2,34.3C105.2,34.3,105.2,34.3,105.2,34.3C105.3,34.3,105.2,34.3,105.2,34.3z"/>
	<path class="st0" d="M144.6,44.9c-0.3-0.4-0.7-0.7-1-1c-3.6-3.1-6.7-3.9-12.4-3.9c0,0-1.1,0.1-1.3,0.1c-0.8,0.1-1.4,0.2-1.7,0.2
		c-0.1,0-0.2,0-0.2,0.1c-1.9,0.5-3.9,1.5-5.9,3.1c-2.8,2.2-5.2,5-7.1,8.4c-1.9,3.5-4.5,8.8-7.7,15.8c-0.7,1.5-1.4,2.9-2.1,4.3
		s-1.4,2.7-2,3.9c-0.7,1.3-1.4,2.5-2,3.6c-0.5,0.9-1.1,1.8-1.6,2.6c-0.5,0.8-1.1,1.6-1.7,2.4c-0.8,0.9-1.6,1.9-2.5,2.7
		c-0.5,0.4-0.9,0.9-1.4,1.3c-0.5,0.4-1,0.8-1.5,1.3c-0.5,0.4-0.9,0.7-1.4,1.1c-0.6,0.4-1.2,0.9-1.9,1.3c-0.5,0.3-1,0.6-1.5,0.9
		c-0.5,0.3-1,0.5-1.5,0.7c-0.5,0.2-1,0.4-1.5,0.6c-0.5,0.2-0.9,0.3-1.4,0.5c-0.5,0.2-1,0.3-1.6,0.5c-0.6,0.1-1.1,0.3-1.7,0.4
		c-0.6,0.1-1.2,0.2-1.8,0.3c-0.4,0.1-0.9,0.1-1.4,0.2c-0.4,0-0.8,0.1-1.2,0.1c-0.6,0-1.2,0.1-1.7,0.1c-0.4,0-0.8,0-1.3,0l-0.1,0
		c-0.6,0-1.2,0-1.7,0c-0.3,0-0.7,0-1-0.1c-0.5,0-1.1-0.1-1.6-0.1c-0.4,0-0.7-0.1-1.1-0.1c-0.4-0.1-0.9-0.1-1.3-0.2
		c-0.5-0.1-0.9-0.2-1.3-0.3c-0.5-0.1-1-0.2-1.5-0.3c-0.4-0.1-0.8-0.2-1.2-0.3c-0.7-0.2-1.4-0.4-2-0.7c-0.5-0.2-1.1-0.4-1.6-0.6
		c-0.6-0.3-0.2-0.1-1.5-0.6c0,0,0.3,0.2,0.8,0.6c0.2,0.1,0.4,0.3,0.6,0.4c0.1,0.1,0.3,0.2,0.4,0.3c0.2,0.1,0.4,0.3,0.6,0.4
		c0.6,0.3,1.1,0.7,1.4,0.8c0.4,0.2,0.8,0.5,1.2,0.7c5.2,2.9,11.3,4.4,18,4.4l0.1,0c6.6,0,12.2-1.5,16.6-4.3c4.4-2.9,8-6.2,10.4-10
		c2.4-3.7,5-8.6,7.7-14.4c0.9-2,1.8-3.9,2.6-5.6c0.5-1,0.9-1.9,1.3-2.8c0.7-1.4,1.3-2.7,1.9-3.9c0.7-1.3,1.3-2.5,1.8-3.5
		c0.4-0.8,0.9-1.6,1.4-2.3c0.5-0.8,1.1-1.5,1.7-2.3c0.6-0.7,1.2-1.4,1.9-2.1c0.7-0.6,1.4-1.3,2.1-1.8c0.3-0.3,0.7-0.5,1-0.7
		c0.4-0.2,0.7-0.5,1.1-0.7v0c0.2-0.1,0.4-0.2,0.5-0.3c0.4-0.2,0.8-0.4,1.3-0.5c0.4-0.1,0.8-0.3,1.3-0.3c0.3-0.1,0.6-0.1,0.9-0.1
		c0.3,0,0.6-0.1,1-0.1c0.3,0,0.6,0,0.9,0c0.3,0,0.6,0,0.9,0c0.3,0,0.7,0,1,0.1c0.4,0,0.7,0.1,1.1,0.1c0.4,0.1,0.7,0.1,1.1,0.2
		c0.4,0.1,0.7,0.2,1,0.2c0.3,0.1,0.6,0.2,0.9,0.2c0.3,0.1,0.5,0.2,0.7,0.2c0.2,0.1,0.3,0.1,0.5,0.2c0.2,0.1,0.5,0.2,0.7,0.3
		c0.2,0.1,0.4,0.2,0.6,0.2c0.6,0.3,1,0.5,1,0.5C145.8,46.3,145.2,45.6,144.6,44.9z"/>
	<g>
		<g>
			<g>
				<g>
					<path class="st1" d="M173.2,28c-1.5-1.2-3.9-2.1-7.2-2.8c-1.4-0.3-2.5-0.6-3.2-0.9c-0.7-0.3-1.3-0.6-1.6-1
						c-0.3-0.4-0.5-0.8-0.5-1.4c0-1,0.4-1.7,1.2-2.2c0.8-0.6,2-0.8,3.4-0.8c2.6,0,5,0.9,7.4,2.6l0.1,0.1l1.9-4.3l-0.1-0.1
						c-1-0.9-2.4-1.6-4.1-2.2c-1.7-0.5-3.5-0.8-5.3-0.8c-2.1,0-3.9,0.4-5.5,1.1c-1.6,0.7-2.8,1.7-3.7,2.9c-0.9,1.2-1.3,2.7-1.3,4.2
						c0,1.4,0.3,2.7,1,3.6c0.6,1,1.6,1.8,3,2.5c1.4,0.7,3.2,1.2,5.4,1.7c2,0.4,3.4,0.9,4.2,1.3c0.8,0.4,1.1,1,1.1,1.8
						c0,0.9-0.4,1.6-1.2,2.1c-0.8,0.5-2.1,0.8-3.6,0.8c-3,0-5.8-0.9-8.3-2.6l-0.1-0.1l-1.9,4.3l0.1,0.1c1.2,0.9,2.7,1.7,4.5,2.2
						c1.8,0.5,3.7,0.8,5.7,0.8c3.4,0,6-0.7,7.9-2.1c1.9-1.4,2.9-3.4,2.9-5.9C175.4,30.8,174.7,29.1,173.2,28z"/>
					<path class="st1" d="M195.7,30c0,2-0.5,3.5-1.4,4.6c-0.9,1-2.3,1.6-4,1.6c-1.7,0-3.1-0.5-4-1.6c-0.9-1-1.4-2.6-1.4-4.6V14.5
						h-5.8v15.2c0,3.6,1,6.4,2.9,8.2c1.9,1.9,4.7,2.8,8.3,2.8c3.6,0,6.4-1,8.3-2.8c1.9-1.9,2.9-4.7,2.9-8.2V14.5h-5.8V30z"/>
					<path class="st1" d="M221.6,29.8c1.8-0.5,3.2-1.3,4.2-2.5c1.1-1.3,1.7-3,1.7-5c0-2.5-0.8-4.5-2.4-5.8c-1.6-1.3-3.9-2-6.9-2h-12
						v26h5.9v-10h2.7c0.8,0,1.4,0.1,1.9,0.4c0.5,0.3,0.9,0.7,1.3,1.3l4.5,8.2l0,0.1h6.5l-4.3-7.8C223.8,31.2,222.8,30.3,221.6,29.8z
						 M212,19.1h5.3c1.6,0,2.8,0.3,3.5,0.8c0.7,0.5,1,1.4,1,2.6c0,1.2-0.4,2-1,2.6c-0.7,0.6-1.9,0.8-3.5,0.8H212V19.1z"/>
					<polygon class="st1" points="249.4,19.2 249.4,14.5 231.8,14.5 231.8,40.5 237.7,40.5 237.7,29.6 248.7,29.6 248.7,24.9 
						237.7,24.9 237.7,19.2 					"/>
				</g>
				<path class="st0" d="M259.3,34.6c-0.9-0.6-1.6-1.3-2.2-2.4c-0.5-1-0.8-2.2-0.8-3.6c0-1.4,0.2-2.6,0.8-3.7c0.5-1,1.2-1.8,2.2-2.4
					c0.9-0.6,2-0.8,3.3-0.8c1.3,0,2.4,0.3,3.3,0.8c0.9,0.6,1.7,1.3,2.2,2.4c0.5,1,0.8,2.2,0.8,3.6c0,1.4-0.2,2.6-0.8,3.6
					c-0.5,1-1.2,1.8-2.2,2.4c-0.9,0.6-2,0.8-3.3,0.8C261.4,35.5,260.3,35.2,259.3,34.6z M265.8,32.5c0.7-0.9,1.1-2.2,1.1-3.9
					s-0.4-3-1.1-3.9s-1.8-1.4-3.1-1.4c-1.3,0-2.4,0.5-3.1,1.4s-1.1,2.2-1.1,3.9s0.4,3,1.1,3.9c0.7,0.9,1.8,1.4,3.1,1.4
					C264,33.9,265,33.4,265.8,32.5z"/>
				<path class="st0" d="M283.7,35.3h-2.2l-2.3-4.3c-0.3-0.5-0.6-0.8-0.9-1s-0.8-0.3-1.4-0.3h-2.2v5.5h-1.9V21.9h5.7
					c1.5,0,2.6,0.3,3.4,1c0.8,0.7,1.2,1.6,1.2,2.9c0,1-0.3,1.9-0.9,2.5c-0.6,0.7-1.4,1.1-2.5,1.3c0.7,0.2,1.2,0.7,1.6,1.5
					L283.7,35.3z M278.3,28.2c1,0,1.7-0.2,2.2-0.6c0.5-0.4,0.7-1,0.7-1.8s-0.2-1.4-0.7-1.8s-1.2-0.6-2.2-0.6h-3.6v4.7H278.3z"/>
				<g>
					<path class="st1" d="M173.2,64.3c-1.5-1.2-3.9-2.1-7.2-2.8c-1.4-0.3-2.5-0.6-3.2-0.9c-0.7-0.3-1.3-0.6-1.6-1
						c-0.3-0.4-0.5-0.8-0.5-1.4c0-1,0.4-1.7,1.2-2.2c0.8-0.6,2-0.8,3.4-0.8c2.6,0,5,0.9,7.4,2.6l0.1,0.1l1.9-4.3l-0.1-0.1
						c-1-0.9-2.4-1.6-4.1-2.2c-1.7-0.5-3.5-0.8-5.3-0.8c-2.1,0-3.9,0.4-5.5,1.1c-1.6,0.7-2.8,1.7-3.7,2.9c-0.9,1.2-1.3,2.7-1.3,4.2
						c0,1.4,0.3,2.7,1,3.6c0.6,1,1.6,1.8,3,2.5c1.4,0.7,3.2,1.2,5.4,1.7c2,0.4,3.4,0.9,4.2,1.3c0.8,0.4,1.1,1,1.1,1.8
						c0,0.9-0.4,1.6-1.2,2.1c-0.8,0.5-2.1,0.8-3.6,0.8c-3,0-5.8-0.9-8.3-2.6l-0.1-0.1l-1.9,4.3l0.1,0.1c1.2,0.9,2.7,1.7,4.5,2.2
						c1.8,0.5,3.7,0.8,5.7,0.8c3.4,0,6-0.7,7.9-2.1c1.9-1.4,2.9-3.4,2.9-5.9C175.4,67.1,174.7,65.5,173.2,64.3z"/>
					<path class="st1" d="M197.2,52.1c-1.9-1.1-4.2-1.6-6.7-1.6s-4.8,0.5-6.7,1.6c-1.9,1.1-3.4,2.6-4.4,4.6c-1,2-1.5,4.4-1.5,7
						s0.5,5.1,1.5,7c1,2,2.5,3.6,4.4,4.7c1.9,1.1,4.2,1.6,6.7,1.6c2.6,0,4.8-0.6,6.7-1.6c1.9-1.1,3.4-2.7,4.4-4.7c1-2,1.5-4.4,1.5-7
						s-0.5-5.1-1.5-7C200.6,54.7,199.1,53.2,197.2,52.1z M190.5,72.4c-2.1,0-3.8-0.7-4.9-2.2c-1.2-1.5-1.8-3.6-1.8-6.5
						s0.6-5,1.8-6.4c1.2-1.5,2.8-2.2,5-2.2c2.1,0,3.8,0.7,5,2.2c1.2,1.5,1.8,3.6,1.8,6.4s-0.6,5-1.8,6.5
						C194.2,71.7,192.6,72.4,190.5,72.4z"/>
					<path class="st1" d="M222.9,66.3c0,2-0.5,3.5-1.4,4.6c-0.9,1-2.3,1.6-4,1.6c-1.7,0-3.1-0.5-4-1.6c-0.9-1-1.4-2.6-1.4-4.6V50.8
						h-5.8V66c0,3.6,1,6.4,2.9,8.2c1.9,1.9,4.7,2.8,8.3,2.8c3.6,0,6.4-1,8.3-2.8c1.9-1.9,2.9-4.7,2.9-8.2V50.8h-5.8V66.3z"/>
					<polygon class="st1" points="250.5,66.9 237.9,50.8 233.5,50.8 233.5,76.8 239,76.8 239,60.6 251.6,76.7 251.7,76.8 
						256.1,76.8 256.1,50.8 250.5,50.8 					"/>
					<path class="st1" d="M282.3,56.8c-1.1-1.9-2.7-3.4-4.7-4.5c-2-1-4.5-1.5-7.3-1.5h-10.1v26h10.1c2.8,0,5.3-0.5,7.3-1.5
						c2-1,3.6-2.5,4.7-4.5c1.1-1.9,1.6-4.3,1.6-7C283.9,61.1,283.4,58.7,282.3,56.8z M266.2,55.7h3.8c5.4,0,8.1,2.7,8.1,8.1
						c0,5.5-2.6,8.2-8.1,8.2h-3.8V55.7z"/>
				</g>
			</g>
			<g class="st2">
				<path class="st1" d="M166.5,100.6h-2.3l-2.4-4.6c-0.3-0.5-0.6-0.8-1-1c-0.4-0.2-0.9-0.3-1.5-0.3h-2.4v5.9h-2.1V86.2h6.1
					c1.6,0,2.8,0.4,3.6,1.1c0.8,0.7,1.3,1.7,1.3,3.1c0,1.1-0.3,2-0.9,2.7s-1.5,1.2-2.6,1.3c0.7,0.2,1.3,0.7,1.8,1.6L166.5,100.6z
					 M160.7,93c1.1,0,1.8-0.2,2.4-0.6c0.5-0.4,0.8-1.1,0.8-1.9s-0.3-1.5-0.8-1.9c-0.5-0.4-1.3-0.6-2.4-0.6h-3.8V93H160.7z"/>
				<path class="st1" d="M179.6,100.6V86.2h9.3v1.7h-7.3v4.5h6.9v1.7h-6.9v4.8h7.3v1.7H179.6z"/>
				<path class="st1" d="M213.2,100.6l-1.5-3.5h-7.3l-1.5,3.5h-2.1l6.4-14.4h1.8l6.4,14.4H213.2z M205.1,95.4h5.9l-2.9-6.8
					L205.1,95.4z"/>
				<path class="st1" d="M227.9,100.6V86.2h2.1v12.6h7v1.8H227.9z"/>
				<path class="st1" d="M253.2,100.6V88h-4.9v-1.8h11.9V88h-4.9v12.6H253.2z"/>
				<path class="st1" d="M284.2,86.2l-5.7,7.7v6.7h-2.1v-6.7l-5.7-7.7h2.4l4.4,5.9l4.4-5.9H284.2z"/>
			</g>
		</g>
	</g>
</g>
</svg>
