<?xml version="1.0" encoding="utf-8"?>
<!-- Generator: Adobe Illustrator 27.1.1, SVG Export Plug-In . SVG Version: 6.00 Build 0)  -->
<svg version="1.1" xmlns="http://www.w3.org/2000/svg" xmlns:xlink="http://www.w3.org/1999/xlink" x="0px" y="0px" width="373.2px"
	 height="238.7px" viewBox="0 0 373.2 238.7" style="enable-background:new 0 0 373.2 238.7;" xml:space="preserve">
<style type="text/css">
	.st0{fill:none;stroke:#EF7D00;stroke-miterlimit:10;}
	.st1{fill:#EF7D00;}
	.st2{fill:#E22723;}
	.st3{fill:url(#SVGID_1_);}
</style>
<g id="guides">
</g>
<g id="Layer_2">
	<polygon class="st0" points="1.3,1.4 371.8,1.4 371.8,237.3 1.4,237.3 	"/>
	<path class="st1" d="M371.8,0L0,0l0,238.6l373.1,0l0-238.7H371.8z M370.4,2.7c0,2.7,0,230.6,0,233.3c-2.7,0-365.1,0-367.7,0
		c0-2.7,0-230.6,0-233.2C5.4,2.7,367.8,2.7,370.4,2.7z"/>
	<path class="st1" d="M370.4,132.6c0,0-101.2,71.4-286.6,103.4h286.6V132.6z"/>
	<path class="st2" d="M334.9,206.7"/>
	
		<radialGradient id="SVGID_1_" cx="188.9663" cy="-398.6108" r="27.199" gradientTransform="matrix(1 0 0 1 6.416 486.083)" gradientUnits="userSpaceOnUse">
		<stop  offset="5.618000e-03" style="stop-color:#FFF3E8"/>
		<stop  offset="9.682110e-02" style="stop-color:#FEEFE0"/>
		<stop  offset="0.2456" style="stop-color:#FEE3CA"/>
		<stop  offset="0.4337" style="stop-color:#FCD0A5"/>
		<stop  offset="0.6534" style="stop-color:#F8B471"/>
		<stop  offset="0.8971" style="stop-color:#F28E2C"/>
		<stop  offset="1" style="stop-color:#EF7D00"/>
	</radialGradient>
	<path class="st3" d="M195.4,60.6c-15.2,0-27.5,11.9-27.5,26.5c0,15.6,11.8,27.2,27.5,27.2c15.3,0,27.5-11.8,27.5-26.9
		C222.9,72.4,210.8,60.6,195.4,60.6z"/>
	<path d="M39.1,61.6H24.2v51.6H39c7.8,0,13.5-1.9,18.4-6c5.9-4.9,9.4-12.2,9.4-19.8C66.8,72.2,55.4,61.6,39.1,61.6z M50.8,100.3
		c-3.2,2.9-7.3,4.1-13.8,4.1h-2.7V70.3H37c6.5,0,10.5,1.2,13.8,4.2c3.5,3.1,5.6,7.9,5.6,12.8C56.4,92.3,54.3,97.3,50.8,100.3z"/>
	<rect x="71.4" y="61.6" width="10.1" height="51.6"/>
	<path d="M106.1,81.4c-6-2.2-7.8-3.7-7.8-6.5c0-3.3,3.2-5.7,7.5-5.7c3,0,5.5,1.2,8.1,4.2l5.3-6.9c-4.3-3.8-9.5-5.7-15.2-5.7
		c-9.1,0-16.1,6.4-16.1,14.8c0,7.1,3.2,10.8,12.7,14.2c4,1.4,6,2.3,7,2.9c2,1.3,3,3.2,3,5.3c0,4.2-3.3,7.3-7.8,7.3
		c-4.8,0-8.7-2.4-11-6.9l-6.5,6.3c4.6,6.8,10.2,9.8,17.9,9.8c10.5,0,17.8-7,17.8-17C121,89.3,117.6,85.5,106.1,81.4z"/>
	<path d="M124.2,87.4c0,15.2,11.9,27,27.3,27c4.3,0,8.1-0.9,12.6-3V99.5c-4,4-7.6,5.7-12.2,5.7c-10.1,0-17.4-7.4-17.4-17.8
		c0-9.9,7.4-17.7,16.9-17.7c4.8,0,8.4,1.7,12.6,5.8V63.5c-4.4-2.2-8.1-3.2-12.4-3.2C136.4,60.4,124.2,72.4,124.2,87.4z"/>
	<polygon points="245.7,96.2 231.9,61.6 220.9,61.6 242.8,114.5 248.2,114.5 270.5,61.6 259.6,61.6 	"/>
	<polygon points="275.1,113.2 303.7,113.2 303.7,104.5 285.2,104.5 285.2,90.5 303,90.5 303,81.8 285.2,81.8 285.2,70.3 303.7,70.3 
		303.7,61.6 275.1,61.6 	"/>
	<path d="M343.6,76.8c0-9.7-6.7-15.2-18.3-15.2h-14.9v51.6h10.1V92.4h1.3l13.9,20.8h12.4l-16.3-21.8
		C339.4,89.9,343.6,84.7,343.6,76.8z M323.4,85.3h-2.9V69.7h3.1c6.3,0,9.7,2.6,9.7,7.7C333.2,82.5,329.8,85.3,323.4,85.3z"/>
	<path d="M350.7,65.4c0-0.9-0.6-1.4-1.7-1.4h-1.5v4.5h1.1v-1.8l1.3,1.8h1.3l-1.5-1.9C350.3,66.5,350.7,66,350.7,65.4z M348.8,66
		h-0.2v-1.2h0.2c0.5,0,0.8,0.2,0.8,0.6C349.6,65.8,349.3,66,348.8,66z"/>
	<path d="M349.2,62.3c-2.2,0-4,1.8-4,4c0,2.2,1.8,4,4,4c2.2,0,3.9-1.8,3.9-4C353.1,64.1,351.3,62.3,349.2,62.3z M349.2,69.5
		c-1.8,0-3.2-1.5-3.2-3.3c0-1.8,1.4-3.3,3.2-3.3c1.7,0,3.1,1.5,3.1,3.3C352.3,68.1,350.9,69.5,349.2,69.5z"/>
	<path d="M114.5,126.8l13.5,14.1v-13.4h1.9v18.1l-13.5-14.1v13.3h-1.9V126.8z"/>
	<path d="M114.4,126.8V145h2.3c0,0,0-12.2,0-13c0.6,0.6,13.5,14.1,13.5,14.1v-18.7h-2.3c0,0,0,12.3,0,13.1
		c-0.6-0.6-13.5-14.1-13.5-14.1V126.8z M114.7,127.2c0.6,0.6,13.5,14.1,13.5,14.1s0-13.3,0-13.7c0.3,0,1.3,0,1.6,0
		c0,0.3,0,16.6,0,17.4c-0.6-0.6-13.5-14.1-13.5-14.1s0,13.2,0,13.6c-0.3,0-1.3,0-1.6,0C114.7,144.3,114.7,128.1,114.7,127.2z"/>
	<path d="M139.3,127.5h9v1.8h-7v5.1h6.8v1.8h-6.8v6.8h7v1.8h-9V127.5z"/>
	<path d="M148.2,127.3h-9.1V145h9.3v-2.2c0,0-6.7,0-7,0c0-0.3,0-6.1,0-6.4c0.3,0,6.8,0,6.8,0v-2.1c0,0-6.5,0-6.8,0
		c0-0.3,0-4.5,0-4.8c0.3,0,7,0,7,0v-2.2H148.2z M148,127.7c0,0.3,0,1.2,0,1.4c-0.3,0-7,0-7,0v5.5c0,0,6.5,0,6.8,0c0,0.3,0,1.2,0,1.4
		c-0.3,0-6.8,0-6.8,0v7.1c0,0,6.7,0,7,0c0,0.3,0,1.2,0,1.4c-0.3,0-8.3,0-8.6,0c0-0.3,0-16.6,0-16.9
		C139.8,127.7,147.7,127.7,148,127.7z"/>
	<path d="M161.8,144.8h-1.9v-15.5h-4.2v-1.8H166v1.8h-4.2V144.8z"/>
	<path d="M166,127.3h-10.5v2.2c0,0,3.8,0,4.2,0c0,0.3,0,15.5,0,15.5h2.3c0,0,0-15.1,0-15.5c0.3,0,4.2,0,4.2,0v-2.2H166z
		 M165.9,127.7c0,0.3,0,1.2,0,1.4c-0.3,0-4.2,0-4.2,0s0,15.1,0,15.5c-0.3,0-1.3,0-1.6,0c0-0.3,0-15.5,0-15.5s-3.8,0-4.2,0
		c0-0.3,0-1.2,0-1.4C156.2,127.7,165.5,127.7,165.9,127.7z"/>
	<path d="M178.9,140.5l5.6-13.9l5.6,13.9l4.5-12.9h2.1l-6.6,18.2l-5.6-13.9l-5.6,13.9l-6.6-18.2h2.1L178.9,140.5z"/>
	<path d="M184.3,126.5c0,0-5.1,12.6-5.4,13.4c-0.3-0.8-4.4-12.6-4.4-12.6H172l6.9,18.9c0,0,5.3-13.2,5.6-13.9
		c0.3,0.8,5.6,13.9,5.6,13.9l6.9-18.9h-2.5c0,0-4.1,11.8-4.4,12.6c-0.3-0.8-5.6-13.8-5.6-13.8L184.3,126.5z M179.1,140.5
		c0,0,5.1-12.7,5.4-13.4c0.3,0.8,5.6,13.9,5.6,13.9s4.6-13,4.7-13.3c0.2,0,1.3,0,1.7,0c-0.2,0.5-6.1,16.7-6.4,17.5
		c-0.3-0.8-5.6-13.9-5.6-13.9s-5.3,13.1-5.6,13.9c-0.3-0.8-6.2-17-6.4-17.5c0.4,0,1.5,0,1.7,0c0.1,0.2,4.7,13.3,4.7,13.3
		L179.1,140.5z"/>
	<path d="M221.6,136.2c0,5-4.1,8.9-9,8.9c-4.9,0-9-3.9-9-8.9c0-4.9,4.1-9,9-9C217.5,127.2,221.6,131.2,221.6,136.2z M205.5,136.1
		c0,3.9,3.2,7.1,7.1,7.1c3.9,0,7.1-3.3,7.1-7.1c0-3.9-3.1-7.2-7.1-7.2C208.6,129,205.5,132.2,205.5,136.1z"/>
	<path d="M203.4,136.2c0,5,4.1,9.1,9.2,9.1c5.1,0,9.2-4.1,9.2-9.1c0-5-4.1-9.1-9.2-9.1C207.5,127,203.4,131.1,203.4,136.2z
		 M203.8,136.2c0-4.8,4-8.8,8.8-8.8c4.9,0,8.8,3.9,8.8,8.8c0,4.8-4,8.7-8.8,8.7C207.7,144.9,203.8,141,203.8,136.2z"/>
	<path d="M205.3,136.1c0,4.1,3.3,7.3,7.3,7.3c4,0,7.3-3.3,7.3-7.3c0-4-3.2-7.3-7.3-7.3C208.6,128.8,205.3,132.1,205.3,136.1z
		 M205.7,136.1c0-3.8,3.1-7,6.9-7c3.8,0,6.9,3.1,6.9,7c0,3.8-3.1,7-6.9,7C208.8,143.1,205.7,140,205.7,136.1z"/>
	<path d="M231.9,144.8H230v-17.3h2.5c3.3,0,6.3,0.9,6.3,4.8c0,2.7-1.7,4.5-4.3,4.8l5.5,7.7h-2.4l-5.2-7.6h-0.5V144.8z M231.9,135.5
		h0.6c2.2,0,4.4-0.4,4.4-3.1c0-2.8-2.1-3.1-4.4-3.1h-0.6V135.5z"/>
	<path d="M230,127.3h-0.2V145h2.3c0,0,0-7.2,0-7.6c0.1,0,0.3,0,0.3,0l0,0c0,0.1,5.1,7.5,5.1,7.5l2.5,0.1h0.4c0,0-5.3-7.4-5.5-7.8
		c2.5-0.3,4.2-2.2,4.2-4.9c0-3.3-2.1-4.9-6.5-4.9H230z M232.5,127.7c4.2,0,6.1,1.5,6.1,4.6c0,2.6-1.6,4.4-4.2,4.6l-0.3,0
		c0,0,5.1,7.2,5.5,7.7c-0.5,0-2,0-2,0h0c0-0.1-5.1-7.5-5.1-7.5l-0.6-0.1h-0.2c0,0,0,7.2,0,7.6c-0.3,0-1.3,0-1.6,0
		c0-0.3,0-16.6,0-16.9C230.4,127.7,232.5,127.7,232.5,127.7z"/>
	<path d="M231.9,129.1h-0.2v6.6h0.8c2.1,0,4.6-0.4,4.6-3.3c0-3-2.4-3.3-4.6-3.3H231.9z M232.5,129.5c2.2,0,4.2,0.2,4.2,2.9
		c0,2.6-2.1,2.9-4.2,2.9c0,0-0.2,0-0.4,0c0-0.3,0-5.5,0-5.8C232.2,129.5,232.5,129.5,232.5,129.5z"/>
	<path d="M257.4,127.5h2.6l-8.1,8.1l8.4,9.2h-2.7l-7.1-7.9l-0.5,0.5v7.5h-1.9v-17.3h1.9v7.4L257.4,127.5z"/>
	<path d="M260,127.3h-2.7c0,0-6.6,6.6-7.1,7.2c0-0.8,0-7.2,0-7.2h-2.3V145h2.3c0,0,0-7.6,0-7.6c0,0,0.2-0.1,0.3-0.2
		c0.2,0.3,7,7.8,7,7.8l2.8,0.1h0.4c0,0-8.3-9.2-8.6-9.4c0.3-0.2,8.3-8.2,8.3-8.2H260z M259.5,127.7c-0.6,0.6-7.9,7.9-7.9,7.9
		s7.7,8.5,8.2,9.1c-0.6,0-2.3,0-2.3,0l0,0c0-0.1-7-7.9-7-7.9l-0.1-0.1l-0.6,0.6c0,0-0.1,7.1-0.1,7.4c-0.3,0-1.3,0-1.6,0
		c0-0.3,0-16.6,0-16.9c0.3,0,1.3,0,1.6,0c0,0.3,0,7.7,0,7.7s7.5-7.6,7.6-7.7C257.6,127.7,259,127.7,259.5,127.7z"/>
</g>
</svg>
